<?xml version="1.0" encoding="utf-8"?>
<!-- Generator: Adobe Illustrator 26.5.0, SVG Export Plug-In . SVG Version: 6.00 Build 0)  -->
<svg version="1.1" id="Layer_1" xmlns="http://www.w3.org/2000/svg" xmlns:xlink="http://www.w3.org/1999/xlink" x="0px" y="0px"
	 viewBox="0 0 225.6 241.4" style="enable-background:new 0 0 225.6 241.4;" xml:space="preserve">
<style type="text/css">
	.st0{fill:#347A2A;}
</style>
<g>
	<rect y="234.4" class="st0" width="225.6" height="7"/>
	<rect x="3.4" y="229.9" class="st0" width="218.9" height="4.5"/>
	<path class="st0" d="M213.9,231.4c0-0.1,0-0.1,0-0.2c0-0.1,0-0.2,0-0.3c0,0,0,0,0,0c-0.2-3-0.4-6.1-0.7-9.1c0,0,0,0,0,0
		c0,0,0,0,0-0.1c-0.4-3.5-0.8-7-1.4-10.5c0-0.1,0-0.3,0-0.4c0-0.1-0.1-0.1-0.1-0.1c-0.6-3.6-1.3-7.3-2-10.9c0-0.1,0-0.3,0-0.4
		c0-0.1-0.1-0.1-0.1-0.2c-0.7-3.2-1.4-6.4-2.2-9.7c0-0.1,0-0.3,0-0.4c0-0.1-0.1-0.1-0.1-0.2c-1.8-6.9-3.8-13.7-6.1-20.4
		c0-0.1,0-0.3,0-0.4c0-0.1-0.1-0.2-0.2-0.4c-1.1-3.4-2.4-6.7-3.6-10c0-0.2,0-0.3-0.1-0.5c-0.1-0.2-0.2-0.3-0.3-0.4
		c-1.2-3.1-2.4-6.2-3.7-9.2c0-0.1,0-0.3-0.1-0.4c-0.1-0.2-0.2-0.3-0.3-0.4c-1.5-3.6-3-7.1-4.6-10.5c0-0.2,0-0.3-0.1-0.5
		c-0.1-0.2-0.2-0.3-0.3-0.4c-1.4-3-2.8-6-4.2-9c0-0.2,0-0.3-0.1-0.5c-0.1-0.2-0.2-0.3-0.4-0.5c-0.9-1.9-1.9-3.8-2.8-5.6
		c0-0.1,0-0.2,0-0.2c-0.1-0.2-0.2-0.4-0.4-0.6c-2-4-4.1-7.9-6.2-11.7c0-0.1,0-0.2,0-0.3c-0.1-0.2-0.2-0.4-0.4-0.5
		c-1.7-3.1-3.4-6.1-5.1-9.1c0-0.1,0-0.2-0.1-0.3c-0.1-0.2-0.2-0.4-0.4-0.5c-1.8-3.1-3.6-6.1-5.4-9c0-0.1,0-0.1,0-0.2
		c-0.1-0.2-0.2-0.4-0.4-0.5c-2.1-3.4-4.1-6.6-6-9.7c0-0.1,0-0.1,0-0.2c-0.1-0.2-0.2-0.3-0.4-0.4c-1.9-3-3.8-5.8-5.5-8.4
		c0-0.1,0-0.1,0-0.1c-0.1-0.2-0.2-0.3-0.4-0.4c-2.2-3.3-4.3-6.3-6.2-9c0,0,0,0,0-0.1c-0.1-0.1-0.2-0.2-0.3-0.3
		c-2.7-3.8-5.1-7.1-7.1-9.8c0,0,0-0.1-0.1-0.1c-2.6-3.4-4.5-5.9-5.5-7.2c0,0,0-0.1,0-0.1c0,0,0,0,0,0c0-0.2,0-0.3,0-0.5
		c0-0.1,0-0.1-0.1-0.1c0,0,0-0.1,0-0.1c0,0,0,0-0.1-0.1c-0.1-0.2-0.2-0.3-0.3-0.4c0.2-0.4,0.5-0.7,0.7-1.1c0,0,0,0,0-0.1
		c0.1-0.2,0.2-0.4,0.2-0.6c0,0,0-0.1,0-0.1c0-0.1,0-0.3,0-0.4c0-0.1-0.1-0.1-0.1-0.1c0,0,0-0.1,0-0.1c0,0,0,0-0.1-0.1
		c-0.1-0.1-0.2-0.2-0.3-0.3c-0.1,0-0.1-0.1-0.1-0.1c-0.2-0.1-0.4-0.1-0.6-0.1c0,0,0,0,0,0L109.1,37l-12.9-0.3c0,0,0,0-0.1,0
		c-0.2,0-0.4,0.1-0.6,0.1c-0.1,0-0.1,0.1-0.2,0.1c-0.1,0.1-0.2,0.2-0.3,0.3c0,0-0.1,0-0.1,0.1c0,0,0,0.1,0,0.1c0,0-0.1,0.1-0.1,0.1
		c0,0.1-0.1,0.3-0.1,0.4c0,0,0,0.1,0,0.1c0,0.2,0.1,0.4,0.2,0.6c0,0,0,0,0,0.1c0.2,0.3,0.4,0.7,0.6,1c-0.1,0.1-0.2,0.2-0.3,0.3
		c0,0-0.1,0-0.1,0.1c0,0,0,0.1,0,0.1c0,0-0.1,0.1-0.1,0.1c0,0.2,0,0.3,0,0.5c0,0,0,0,0,0c0,0,0,0.1,0,0.1c-1.1,1.3-3,3.8-5.5,7.2
		c0,0,0,0.1-0.1,0.1c-2,2.7-4.4,6-7.1,9.8c-0.1,0.1-0.2,0.2-0.3,0.4c0,0,0,0,0,0.1c-1.9,2.8-4,5.8-6.2,9c-0.2,0.1-0.3,0.3-0.4,0.5
		c0,0.1,0,0.1,0,0.1c-1.8,2.7-3.6,5.4-5.5,8.4c-0.2,0.1-0.3,0.3-0.4,0.4c0,0.1,0,0.1,0,0.2c-2,3.1-4,6.3-6.1,9.6
		c-0.2,0.1-0.3,0.3-0.4,0.5c0,0.1,0,0.1,0,0.2c-1.8,2.9-3.6,5.9-5.3,9c-0.2,0.1-0.3,0.3-0.4,0.5c0,0.1,0,0.2-0.1,0.3
		c-1.7,2.9-3.4,6-5.1,9.1c-0.2,0.1-0.3,0.3-0.4,0.5c0,0.1,0,0.2-0.1,0.3c-2.1,3.8-4.1,7.7-6.2,11.7c-0.2,0.2-0.4,0.4-0.4,0.6
		c0,0.1,0,0.2,0,0.2c-0.9,1.9-1.9,3.7-2.8,5.6c-0.2,0.1-0.3,0.3-0.4,0.5c-0.1,0.2-0.1,0.3-0.1,0.5c-1.4,2.9-2.8,5.9-4.2,9
		c-0.1,0.1-0.2,0.2-0.3,0.4c-0.1,0.1-0.1,0.3-0.1,0.5c-1.6,3.4-3.1,7-4.6,10.5c-0.1,0.1-0.2,0.3-0.3,0.4c0,0.1-0.1,0.3-0.1,0.4
		c-1.3,3-2.5,6.1-3.7,9.2c-0.1,0.1-0.2,0.3-0.3,0.4c-0.1,0.2-0.1,0.3-0.1,0.5c-1.2,3.3-2.5,6.6-3.6,9.9c-0.1,0.1-0.2,0.2-0.2,0.4
		c0,0.1,0,0.3,0,0.4c-2.3,6.7-4.3,13.5-6.1,20.4c0,0.1-0.1,0.1-0.1,0.2c0,0.1,0,0.3,0,0.4c-0.8,3.2-1.6,6.4-2.2,9.6
		c0,0.1-0.1,0.1-0.1,0.2c0,0.1,0,0.3,0,0.5c-0.8,3.6-1.4,7.3-2,10.9c0,0.1,0,0.1-0.1,0.1c0,0.1,0,0.3,0,0.4c-0.5,3.5-1,7-1.4,10.4
		c0,0,0,0,0,0.1c0,0,0,0,0,0c-0.3,3-0.6,6.1-0.7,9.1c0,0,0,0,0,0c0,0.1,0,0.2,0,0.3c0,0.1,0,0.1,0,0.2c0,0,0,0,0,0c0,0,0,0,0.1,0.1
		c0,0.1,0.1,0.2,0.2,0.3c0,0,0.1,0.1,0.2,0.1c0,0,0.1,0.1,0.1,0.1c0.2,0.1,0.4,0.2,0.6,0.2c0,0,0,0,0,0h0H24c0.2,0,0.3,0,0.5-0.1
		c0,0,0.1,0,0.1-0.1c0.1-0.1,0.2-0.1,0.3-0.2c0,0,0,0,0,0c0,0,0-0.1,0.1-0.1c0-0.1,0.1-0.1,0.1-0.2c0-0.1,0-0.1,0.1-0.2
		c0-0.1,0-0.1,0-0.2c0-0.7,3.3-56.7,53.2-128.6c-0.4,1.2-0.9,2.5-1.3,3.7c-0.1,0.1-0.1,0.1-0.2,0.2c-0.1,0.2-0.1,0.4-0.1,0.6
		c-1.3,3.9-2.7,7.9-4,12c-0.1,0.1-0.2,0.2-0.2,0.4c0,0.1,0,0.2,0,0.4c-0.6,2-1.2,4-1.8,6c0,0.1-0.1,0.1-0.1,0.1
		c-0.1,0.2-0.1,0.4-0.1,0.6c-0.9,3.1-1.8,6.2-2.7,9.4c0,0.1-0.1,0.1-0.1,0.1c-0.1,0.2-0.1,0.4-0.1,0.6c-1,3.6-2,7.2-2.9,10.9
		c0,0.1-0.1,0.1-0.1,0.2c-0.1,0.2-0.1,0.4-0.1,0.5c-0.8,3.2-1.6,6.4-2.3,9.6c0,0.1-0.1,0.1-0.1,0.1c-0.1,0.2-0.1,0.3-0.1,0.5
		c-0.8,3.4-1.5,6.9-2.2,10.4c-0.1,0.2-0.2,0.4-0.1,0.6c-1.4,6.9-2.6,13.9-3.6,20.9c-0.1,0.2-0.1,0.3-0.1,0.5
		c-0.5,3.3-0.9,6.6-1.3,10c0,0.1,0,0.2,0,0.3c-0.4,3.8-0.8,7.6-1.1,11.4c0,0,0,0.1,0,0.1c-0.3,3.6-0.5,7.3-0.6,10.9c0,0,0,0,0,0
		c-0.1,3.1-0.2,6.2-0.2,9.3c0,0,0,0.1,0,0.1c0,0.1,0,0.2,0.1,0.2c0,0.1,0.1,0.1,0.1,0.2c0,0,0,0.1,0,0.1c0,0,0.1,0,0.1,0.1
		c0,0,0.1,0.1,0.1,0.1c0.1,0.1,0.1,0.1,0.2,0.1c0.1,0,0.1,0.1,0.1,0.1c0.2,0.1,0.3,0.1,0.5,0.1c0,0,0,0,0,0l7.9-0.2c0,0,0.1,0,0.1,0
		c0.1,0,0.2,0,0.3-0.1c0.1,0,0.1-0.1,0.2-0.1c0.1,0,0.1,0,0.2-0.1c0,0,0,0,0,0c0.1-0.1,0.1-0.1,0.2-0.2c0-0.1,0.1-0.1,0.1-0.2
		c0-0.1,0-0.1,0.1-0.2s0.1-0.2,0.1-0.2c0,0,0,0,0,0c0-0.8,0.2-75.7,49.4-165c49.3,89.3,49.5,164.3,49.5,165.1c0,0,0,0,0,0
		c0,0.1,0,0.2,0,0.3c0,0.1,0,0.1,0.1,0.2c0,0.1,0.1,0.1,0.1,0.2c0.1,0.1,0.1,0.1,0.2,0.2c0,0,0,0,0,0c0,0,0.1,0.1,0.2,0.1
		s0.1,0.1,0.2,0.1c0.1,0,0.2,0.1,0.3,0.1c0,0,0.1,0,0.1,0l7.9,0.2c0,0,0,0,0,0c0.2,0,0.4,0,0.5-0.1c0,0,0.1-0.1,0.1-0.1
		c0.1,0,0.1-0.1,0.2-0.1c0,0,0.1-0.1,0.1-0.1c0,0,0.1,0,0.1-0.1c0,0,0-0.1,0-0.1c0-0.1,0.1-0.1,0.1-0.2c0-0.1,0-0.2,0.1-0.2
		c0,0,0-0.1,0-0.1c0-3.1-0.1-6.2-0.2-9.3c0,0,0,0,0-0.1c-0.1-3.6-0.3-7.2-0.6-10.8c0-0.1,0-0.2,0-0.2c-0.3-3.8-0.6-7.6-1-11.4
		c0-0.1,0-0.2,0-0.3c-0.4-3.3-0.8-6.7-1.3-10c0-0.2,0-0.4-0.1-0.5c-1-7-2.2-14-3.6-20.9c0-0.2,0-0.4-0.1-0.6
		c-0.7-3.5-1.4-7-2.2-10.4c0-0.2,0-0.4-0.1-0.5c0-0.1-0.1-0.1-0.1-0.2c-0.7-3.2-1.5-6.4-2.3-9.6c0-0.2,0-0.4-0.1-0.5
		c0-0.1-0.1-0.1-0.1-0.2c-0.9-3.7-1.9-7.3-2.9-10.9c0-0.2,0-0.4-0.1-0.6c0-0.1-0.1-0.1-0.1-0.1c-0.9-3.2-1.8-6.3-2.7-9.4
		c0-0.2,0-0.4-0.1-0.6c0-0.1-0.1-0.1-0.1-0.1c-0.6-2-1.2-4-1.9-6c0-0.1,0-0.2,0-0.4c0-0.1-0.1-0.3-0.2-0.4c-1.3-4.1-2.6-8.1-4-12
		c0-0.2,0-0.4-0.1-0.5c0-0.1-0.1-0.1-0.2-0.2c-0.5-1.4-0.9-2.7-1.4-4c50,71.9,53.2,128,53.3,128.7c0,0.1,0,0.1,0,0.2
		c0,0.1,0,0.2,0.1,0.2s0.1,0.1,0.1,0.2c0,0,0.1,0.1,0.1,0.1c0,0,0,0,0,0c0.1,0.1,0.2,0.1,0.3,0.2c0,0,0.1,0.1,0.1,0.1
		c0.1,0.1,0.3,0.1,0.5,0.1h11.1h0c0,0,0,0,0,0c0.2,0,0.4-0.1,0.6-0.2c0.1,0,0.1-0.1,0.1-0.1c0,0,0.1-0.1,0.2-0.1
		c0.1-0.1,0.1-0.2,0.2-0.3C213.8,231.5,213.9,231.5,213.9,231.4C213.9,231.5,213.9,231.4,213.9,231.4z M200.9,216.6l3.4,2.1
		l-2.4,3.8C201.6,220.8,201.3,218.8,200.9,216.6z M198.7,206.4l3.1,1.6l-2,3.1C199.4,209.6,199.1,208,198.7,206.4z M195.6,195.1
		l4.3,2l-2.6,4.1C196.8,199.2,196.2,197.2,195.6,195.1z M192.5,185.1l3.9,1.6l-2.3,3.4C193.6,188.5,193,186.9,192.5,185.1z
		 M188.7,174.7l4.5,1.9l-2.4,3.8C190.1,178.5,189.4,176.6,188.7,174.7z M184.5,164.4l4.7,1.7l-2.4,3.9
		C186.1,168.1,185.3,166.3,184.5,164.4z M180,154.1l5.3,1.6l-2.7,4.1C181.8,158,180.9,156,180,154.1z M175.2,144.4l4.9,1.3l-2.3,3.9
		C177,147.9,176.1,146.2,175.2,144.4z M169.9,134.2l5.9,1.2l-2.8,4.7C172,138.1,170.9,136.2,169.9,134.2z M164.4,124.5l7.6,1.3
		l-4.2,4.6C166.7,128.5,165.6,126.5,164.4,124.5z M158.8,115.3l5.8,1.7l-2.5,3.7C161,118.9,159.9,117.1,158.8,115.3z M152.1,105.1
		l7.2,1.3l-3.3,4.8C154.8,109.1,153.5,107.1,152.1,105.1z M145.5,95.7l7.4,1.1l-3.4,4.6C148.2,99.5,146.9,97.6,145.5,95.7z
		 M151.9,124.7l-1.6-0.4l1-1.5C151.5,123.4,151.7,124,151.9,124.7z M166.6,188.4l-2.2-1.4l1.5-2.9
		C166.2,185.6,166.4,187,166.6,188.4z M169.2,210.3l-1.9-1.4l1.5-3C169,207.3,169.1,208.8,169.2,210.3z M169.9,221l-1.2-1.1l1-2.1
		C169.8,218.9,169.8,219.9,169.9,221z M162.8,208.4l1.4,1.1l-1,2.1C163,210.6,162.9,209.6,162.8,208.4z M161,196.9l2.3,1.6l-1.5,3.1
		C161.6,200.1,161.3,198.5,161,196.9z M159.2,186.6l2.1,1.3l-1.3,2.6C159.7,189.2,159.4,187.9,159.2,186.6z M156.9,176l2.5,1.6
		l-1.4,2.9C157.6,179,157.2,177.5,156.9,176z M154.3,165.3l2.6,1.4l-1.5,3.1C155.1,168.4,154.7,166.9,154.3,165.3z M151.5,154.8
		l3.1,1.4l-1.7,3.4C152.4,158,151.9,156.4,151.5,154.8z M148.5,144.8l2.8,1.2l-1.4,3.2C149.4,147.7,148.9,146.3,148.5,144.8z
		 M145,134.3l3.5,1.1l-1.8,4C146.2,137.7,145.6,136,145,134.3z M141.5,124.4l4.8,1.3l-2.8,4.1C142.8,128,142.1,126.2,141.5,124.4z
		 M137.9,115.1l3.4,1.5l-1.6,3.1C139.1,118.1,138.5,116.6,137.9,115.1z M133.5,104.5l4.5,1.2l-2.2,4.2
		C135,108.1,134.2,106.3,133.5,104.5z M129.2,95l4.5,1l-2.2,4C130.8,98.3,130,96.6,129.2,95z M124.6,85.2l4.9,0.9l-2.3,4.4
		C126.3,88.8,125.4,87,124.6,85.2z M119.7,75.5l5.6,0.7l-2.8,4.8C121.5,79.1,120.6,77.3,119.7,75.5z M114.8,66.4l4.8,0.5
		c0.1,0.2,0.3,0.3,0.4,0.5l-2.5,4C116.6,69.8,115.7,68.1,114.8,66.4z M108.1,71.3l-2.4-3.9c0.2-0.2,0.4-0.4,0.5-0.6l4.6-0.5
		C109.9,68,109,69.7,108.1,71.3z M103.2,80.8l-2.8-4.8l5.6-0.7C105,77.2,104.1,79,103.2,80.8z M98.5,90.4L96.2,86l4.9-0.9
		C100.2,86.8,99.3,88.6,98.5,90.4z M94.1,99.8l-2.2-4l4.5-1C95.6,96.5,94.9,98.1,94.1,99.8z M89.9,109.8l-2.2-4.2l4.5-1.2
		C91.4,106.2,90.6,108,89.9,109.8z M86,119.5l-1.6-3.1l3.4-1.5C87.2,116.5,86.6,118,86,119.5z M82.2,129.7l-2.8-4.1l4.8-1.3
		C83.5,126.1,82.8,127.9,82.2,129.7z M78.9,139.2l-1.8-4l3.5-1.1C80,135.8,79.5,137.6,78.9,139.2z M75.8,149l-1.4-3.2l2.8-1.2
		C76.7,146.1,76.3,147.6,75.8,149z M72.8,159.5l-1.7-3.4l3.1-1.4C73.7,156.3,73.2,157.9,72.8,159.5z M70.2,169.7l-1.5-3.1l2.6-1.4
		C70.9,166.7,70.5,168.2,70.2,169.7z M67.7,180.3l-1.4-2.9l2.4-1.6C68.4,177.4,68,178.9,67.7,180.3z M65.7,190.4l-1.3-2.6l2.1-1.3
		C66.2,187.8,65.9,189.1,65.7,190.4z M63.8,201.4l-1.5-3.1l2.3-1.6C64.3,198.3,64.1,199.9,63.8,201.4z M62.5,211.5l-1-2.1l1.4-1.1
		C62.7,209.4,62.6,210.5,62.5,211.5z M55.6,227.1l1.9,2.3l-2,1.3C55.5,229.5,55.5,228.3,55.6,227.1z M55.9,217.7l1,2.1l-1.2,1.1
		C55.8,219.8,55.9,218.7,55.9,217.7z M56.8,205.7l1.5,3l-1.9,1.4C56.6,208.7,56.7,207.2,56.8,205.7z M59.6,184l1.5,2.9l-2.2,1.4
		C59.2,186.8,59.4,185.4,59.6,184z M74.3,122.6l1,1.5l-1.6,0.4C73.9,123.9,74.1,123.2,74.3,122.6z M76.1,101.4l-3.3-4.5l7.2-1
		C78.7,97.7,77.3,99.6,76.1,101.4z M69.6,111.1l-3.3-4.7l7.2-1.3C72.2,107.1,70.8,109.1,69.6,111.1z M63.6,120.7l-2.5-3.7l5.8-1.7
		C65.7,117.1,64.7,118.9,63.6,120.7z M57.8,130.5l-4.2-4.6l7.6-1.3C60.1,126.5,58.9,128.5,57.8,130.5z M52.6,140.1l-2.8-4.7l5.9-1.2
		C54.7,136.2,53.6,138.1,52.6,140.1z M47.8,149.7l-2.3-3.9l4.9-1.3C49.5,146.2,48.6,147.9,47.8,149.7z M43,159.9l-2.7-4.1l5.3-1.6
		C44.7,156,43.9,158,43,159.9z M38.8,169.9l-2.5-3.9l4.7-1.7C40.3,166.3,39.5,168.1,38.8,169.9z M34.8,180.4l-2.4-3.8l4.5-1.9
		C36.2,176.6,35.5,178.5,34.8,180.4z M31.5,190.2l-2.3-3.4l4-1.6C32.6,186.9,32,188.5,31.5,190.2z M28.3,201.1l-2.6-4.1l4.3-2
		C29.4,197.2,28.8,199.2,28.3,201.1z M25.9,211.1l-2-3.1l3.1-1.6C26.6,208,26.2,209.6,25.9,211.1z M15.8,214.7l2,3.2l-2.7,1.6
		C15.3,217.9,15.5,216.3,15.8,214.7z M17.8,203l2.6,4l-3.6,1.9C17,206.9,17.4,205,17.8,203z M20,192.7l2.1,3.3l-3.2,1.5
		C19.2,195.9,19.6,194.3,20,192.7z M22.9,181.9l2.5,3.8l-4.1,1.7C21.9,185.5,22.4,183.7,22.9,181.9z M26.1,171.4l2.6,4l-4.5,1.9
		C24.9,175.4,25.5,173.4,26.1,171.4z M30,160.6l2.6,4.1l-4.7,1.7C28.5,164.5,29.2,162.5,30,160.6z M33.9,150.4l2.5,3.9l-4.7,1.4
		C32.5,154,33.2,152.2,33.9,150.4z M38.8,139.1l2.9,5.1l-5.8,1.6C36.8,143.5,37.8,141.3,38.8,139.1z M43.4,129.2l2.6,4.4l-5.1,1
		C41.7,132.8,42.5,131,43.4,129.2z M46.9,122.2l1.9,2l-3.2,0.6C46,123.9,46.4,123,46.9,122.2z M53.3,109.9l3.8,5.6l-8.1,2.3
		C50.4,115.2,51.9,112.5,53.3,109.9z M58.8,100l3.2,4.6l-6.5,1.1C56.7,103.8,57.8,101.9,58.8,100z M64.7,90.1l3.6,4.9l-7.1,1
		C62.3,94,63.5,92,64.7,90.1z M71.1,79.8l3.8,5.5L67,86.2C68.4,84,69.7,81.9,71.1,79.8z M77,70.6l3.8,4.9L73.5,76
		C74.7,74.2,75.9,72.4,77,70.6z M83.7,61l4.5,5.5l-8.7,0.5C80.9,64.9,82.3,62.9,83.7,61z M90.7,51.1l4.4,5.6l-9,0.7
		C87.8,55.1,89.4,53,90.7,51.1z M139.5,57.4l-9-0.7l4.4-5.6C136.3,53,137.8,55.1,139.5,57.4z M146.2,67l-8.7-0.5L142,61
		C143.3,62.9,144.7,64.9,146.2,67z M152.1,76l-7.4-0.6l3.8-4.9C149.8,72.4,150.9,74.2,152.1,76z M158.6,86.2l-7.9-0.9l3.8-5.5
		C155.9,81.9,157.2,84,158.6,86.2z M164.5,95.9l-7-1l3.6-4.8C162.1,92,163.3,94,164.5,95.9z M170,105.7l-6.5-1.1l3.2-4.6
		C167.9,101.9,169,103.8,170,105.7z M176.6,117.9l-8.1-2.3l3.8-5.6C173.8,112.5,175.2,115.2,176.6,117.9z M180.1,124.7l-3.2-0.6
		l1.9-2C179.2,123,179.6,123.9,180.1,124.7z M184.8,134.6l-5.1-1l2.6-4.4C183.1,131,183.9,132.8,184.8,134.6z M189.7,145.8l-5.8-1.6
		l2.9-5.1C187.8,141.3,188.8,143.5,189.7,145.8z M193.8,155.8l-4.7-1.4l2.5-3.9C192.4,152.2,193.1,154,193.8,155.8z M197.8,166.4
		l-4.7-1.7l2.6-4.1C196.4,162.5,197.1,164.5,197.8,166.4z M201.4,177.3l-4.5-1.9l2.6-4C200.1,173.4,200.7,175.4,201.4,177.3z
		 M204.2,187.3l-4.1-1.7l2.5-3.8C203.2,183.7,203.8,185.5,204.2,187.3z M206.7,197.5l-3.2-1.5l2.1-3.3
		C206,194.3,206.4,195.9,206.7,197.5z M209,208.9l-3.6-1.9l2.6-4C208.3,205,208.6,206.9,209,208.9z M210.5,219.5l-2.7-1.6l2-3.2
		C210.1,216.3,210.3,217.9,210.5,219.5z M209.9,222.1l-4.8,4.2l-2.1-0.9l3.5-5.4L209.9,222.1z M205.7,216.6l-4.7-2.8l3-4.6l4.9,2.5
		L205.7,216.6z M203.1,205.9l-4.4-2.3l3.5-5.5l4.5,2.1L203.1,205.9z M201.2,195l-5.6-2.6l3.1-4.6l5.6,2.3L201.2,195z M197.8,184.7
		l-5.4-2.2l3.1-4.8l5.5,2.3L197.8,184.7z M194.6,174.5l-6-2.6l3.2-5l6.3,2.2L194.6,174.5z M190.6,163.9l-6.2-2.2l3.4-5.2l6.3,1.9
		L190.6,163.9z M186.7,153.6l-7-2.1l2.9-5l7.4,2L186.7,153.6z M181.4,143.5l-6.5-1.8l3.4-5.9l6.8,1.3L181.4,143.5z M177.1,133.1
		l-7-1.4l4.9-5.3l5.5,1L177.1,133.1z M174,123.7l-9.8-1.7l2.9-4.2l9.8,2.8L174,123.7z M166,114.8l-7.9-2.3l3.9-5.7l8.4,1.4
		L166,114.8z M160.9,104.1l-9.1-1.6l4-5.4l9.1,1.3L160.9,104.1z M89.8,82.8l-0.9-1.2c0.3-0.8,0.6-1.6,1-2.4l1.1,2.1
		C90.5,81.8,90.1,82.3,89.8,82.8z M94.6,74.3L92,74.6l-0.3,0c0.4-0.9,0.7-1.7,1.1-2.6L94.6,74.3z M91.5,77.2l0.7-0.1l2.2-0.2
		c-0.6,0.8-1.2,1.5-1.8,2.3L91.5,77.2z M95.9,68.5l5.8-0.4c-1.2,1.4-2.3,2.8-3.5,4.2L95.9,68.5z M101.2,64.8l-5.6,0.6
		c0.8-1.8,1.6-3.6,2.3-5.2l2.2,2.8L101.2,64.8z M124.2,42.9l-1.2,1.2c-0.1-0.3-0.3-0.6-0.4-0.9L124.2,42.9z M107.8,46.5l3.2-0.7
		l0.3,0.4l-2.8,3.7l-2.7-2.7L107.8,46.5z M113.1,53.9l-0.6,0.1l-2.3-2.3l2.6-3.4l2.5,3.4L113.1,53.9z M119.7,47.4l-2.6,2.5l-2.8-3.7
		l0.3-0.4l1.8,0.4L119.7,47.4z M107.1,44.2l-1.9,0.4c0.1-0.3,0.3-0.5,0.4-0.8L107.1,44.2z M120.4,44.6l-1.9-0.4l1.5-0.3
		C120.2,44.1,120.3,44.3,120.4,44.6z M112.6,42.3l-1.4-0.5h2.8L112.6,42.3z M103,43.3c-0.1,0.3-0.3,0.5-0.4,0.8l-1.2-1.2L103,43.3z
		 M115.2,58.1L115.2,58.1C115.1,58.2,115.1,58.2,115.2,58.1L115.2,58.1z M120.2,55c1-1.6,1.9-3.2,2.9-4.9c0.8,1.7,1.7,3.5,2.6,5.6
		L120.2,55z M105.3,54.9l-5.3,0.7c0.9-1.9,1.7-3.8,2.5-5.4C103.4,51.8,104.3,53.3,105.3,54.9z M112.8,59.3c0.3,0.4,0.7,0.7,1,1.1
		l-1,1.6l-1-1.7C112.2,60,112.5,59.7,112.8,59.3z M127.7,60.3c0.8,1.7,1.5,3.5,2.3,5.3l-5.6-0.6l1.5-2.5L127.7,60.3z M131,74.4
		l1.9-2.3c0.4,0.8,0.7,1.7,1.1,2.5L131,74.4z M129.8,68.5l-2.3,3.9c-1.2-1.4-2.4-2.9-3.6-4.3L129.8,68.5z M134.1,77.3l-1,1.9
		c-0.6-0.8-1.2-1.5-1.8-2.3L134.1,77.3z M135.8,79.4c0.3,0.8,0.6,1.5,0.9,2.3l-0.9,1.1c-0.4-0.5-0.7-0.9-1.1-1.4L135.8,79.4z
		 M141.5,86.8c0-0.1,0-0.1,0-0.2l4.9,0.6l-3.1,4.4C142.7,90.1,142.1,88.4,141.5,86.8z M140.4,84.1c-0.3-0.7-0.5-1.3-0.8-2l3.3-4.3
		l9.5,0.7L148,85L140.4,84.1z M138.5,79.4c-0.3-0.7-0.5-1.3-0.8-2l2.2,0.2L138.5,79.4z M136.7,74.9c-0.7-1.7-1.4-3.3-2-4.9l0.9-1.1
		l10.8,0.7l-4.5,5.7L136.7,74.9z M133.1,66.2c-1.1-2.5-2.1-4.8-3.1-7l9.6,0.7l-5.2,6.4L133.1,66.2z M124.9,48.1l7.9,1.7l-4.4,5.7
		C127.1,52.7,125.9,50.3,124.9,48.1z M97.3,55.5l-4.4-5.6l7.8-1.7C99.6,50.3,98.5,52.7,97.3,55.5z M92.5,66.2L92.5,66.2l-1.2,0.1
		L86,59.9l9.5-0.7C94.6,61.4,93.6,63.8,92.5,66.2z M90.9,69.9c-0.7,1.6-1.4,3.3-2.1,5l-5.1,0.4l-4.5-5.7l10.8-0.7L90.9,69.9z
		 M87.8,77.4c-0.3,0.6-0.5,1.3-0.8,1.9l-1.4-1.8L87.8,77.4z M86,82c-0.3,0.7-0.5,1.4-0.8,2L77.7,85l-4.4-6.4l9.5-0.7L86,82z
		 M84.2,86.7c-0.6,1.6-1.3,3.3-1.9,5l-3-4.4L84.2,86.7z M80.4,93.3l-9.3,1.3l-4.3-5.8l9.7-1.2L80.4,93.3z M89.4,87.3l4.2-0.8l3,5.8
		l-6,1.3l-2.5-4.5C88.5,88.5,89,87.9,89.4,87.3z M91.8,84.3c0.1-0.2,0.3-0.3,0.4-0.5l0.2,0.4L91.8,84.3z M93.9,81.6
		c1.3-1.6,2.6-3.3,4-4.9l3.4,5.8l-6.3,1.2L93.9,81.6z M103.9,69.4l2.1,3.4l-5.6,0.7C101.6,72.1,102.8,70.8,103.9,69.4z M104.3,64.5
		l-2.2-2.8l-1.7-2.8l7-0.5c0.4,0.7,0.8,1.3,1.1,2c-1.2,1.3-2.4,2.7-3.6,4L104.3,64.5z M109.8,62.7c0.2,0.4,0.4,0.8,0.7,1.2l-1.9,0.2
		C109,63.6,109.4,63.1,109.8,62.7z M115.8,62.6c0.5,0.5,0.9,1.1,1.4,1.6L115,64C115.2,63.5,115.5,63.1,115.8,62.6z M117.1,60.3
		c0.4-0.7,0.7-1.3,1.1-2l7.1,0.5l-1.4,2.2l-2.8,3.5l-0.4,0C119.6,63.2,118.3,61.8,117.1,60.3z M125.3,73.7l-5.8-0.8l2.2-3.5
		C123,70.9,124.1,72.3,125.3,73.7z M131.8,81.7l-1.1,2.1l-6.3-1.2l3.5-5.9C129.2,78.4,130.5,80,131.8,81.7z M133.5,83.8
		c0.2,0.2,0.3,0.4,0.5,0.7l-0.8-0.2L133.5,83.8z M136.3,87.4c0.4,0.6,0.8,1.1,1.2,1.7l-2.6,4.6l-6-1.3l3-5.8L136.3,87.4z
		 M149.2,87.6l9.7,1.2l-4.3,5.7l-9.3-1.3L149.2,87.6z M125.8,45.8c0.1-0.2,0.2-0.4,0.4-0.6c0.8-0.8,1.5-1.6,2.3-2.4
		c0.8,1,1.9,2.4,3.3,4.3L125.8,45.8z M121.3,39.3h-0.7c0,0,0-0.1,0-0.1l1,0L121.3,39.3z M97.1,42.8c0.7,0.7,1.4,1.4,2.1,2.1
		c0.2,0.3,0.4,0.6,0.6,0.9l-5.9,1.3C95.2,45.3,96.3,43.8,97.1,42.8z M69.9,97.3l3.9,5.3l-9.2,1.6l-3.9-5.6L69.9,97.3z M63.6,106.9
		l3.9,5.7l-7.9,2.3l-4.4-6.5L63.6,106.9z M48.8,120.5l9.8-2.8l2.9,4.2l-9.8,1.7L48.8,120.5z M50.7,126.4l4.8,5.3l-7,1.4l-3.3-5.7
		L50.7,126.4z M47.3,135.8l3.4,5.9l-6.5,1.8l-3.7-6.3L47.3,135.8z M43,146.4l2.9,5l-7,2.1l-3.3-5.1L43,146.4z M37.9,156.5l3.4,5.2
		l-6.3,2.2l-3.4-5.5L37.9,156.5z M33.9,166.9l3.2,5l-6,2.6l-3.4-5.3L33.9,166.9z M30.1,177.6l3.1,4.8l-5.4,2.2l-3.2-4.8L30.1,177.6z
		 M26.9,187.8l3.1,4.6l-5.6,2.6l-3.1-4.9L26.9,187.8z M23.5,198.1l3.5,5.5l-4.4,2.3l-3.6-5.6L23.5,198.1z M21.7,209.1l3,4.6
		l-4.7,2.8l-3.2-4.9L21.7,209.1z M19.1,220l3.5,5.4l-2.1,0.9l-4.8-4.2L19.1,220z M18,227.4l-3.7,1.6c0.1-1.5,0.2-3,0.4-4.6L18,227.4
		z M20.1,229.2l0.6,0.5h-1.8L20.1,229.2z M22.6,228.1l0.4-0.2c0,0.1,0,0.3,0,0.5L22.6,228.1z M23.7,222.5l-2.4-3.8l3.4-2.1
		C24.3,218.8,24,220.8,23.7,222.5z M83.8,94.9c0.9-1.2,1.8-2.4,2.7-3.6l1.6,2.9l-4.4,1C83.7,95,83.7,94.9,83.8,94.9z M89.3,96.4
		l3,5.4l-5.9,1.6l-3-5.7L89.3,96.4z M84,104l-3.9,1.1c0.6-1.7,1.2-3.4,1.8-5.1L84,104z M85.2,106.2l3,5.8l-5,2.2l-3.4-6.5
		L85.2,106.2z M80.9,115.2l-5,2.2c0.8-2.4,1.6-4.9,2.4-7.2L80.9,115.2z M84.3,121.6l-6.4,1.8l-2.2-3.2l6.4-2.8L84.3,121.6z
		 M76.8,126.2l3.7,5.3l-4.4,1.4l-2.6-5.8L76.8,126.2z M73.7,133.7l-2.9,0.9c0.4-1.5,0.9-3,1.3-4.5L73.7,133.7z M74.7,136l2.7,5.9
		l-4,1.7l-2.8-6.3L74.7,136z M71.1,144.5l-3.4,1.4c0.5-1.9,1-3.8,1.5-5.7L71.1,144.5z M74.3,151.8l-4.3,2l-2.6-5.1l4.6-1.9
		L74.3,151.8z M67.8,154.9l-2.6,1.2c0.3-1.5,0.7-2.9,1.1-4.3L67.8,154.9z M68.9,157.1l2.6,5.2l-3.8,2.1L65,159L68.9,157.1z
		 M65.4,165.6l-2.6,1.4c0.3-1.6,0.7-3.2,1-4.8L65.4,165.6z M66.5,167.8l2.4,5l-3.7,2.4l-2.6-5.3L66.5,167.8z M63.1,176.5l-2.4,1.6
		c0.3-1.6,0.6-3.2,0.8-4.8L63.1,176.5z M64.2,178.7l2.3,4.8l-3.3,2.1l-2.4-4.7L64.2,178.7z M62.3,189.1l2.3,4.5l-3.4,2.4l-2.3-4.8
		L62.3,189.1z M59.2,197.5l-1.6,1.1c0.1-1.2,0.3-2.3,0.4-3.5L59.2,197.5z M60.2,199.7l2.6,5.4l-2.6,2l-2.7-5.5L60.2,199.7z
		 M59.4,211l2.2,4.5l-2.8,2.5l-2.3-4.8L59.4,211z M59.6,228l-3.5-4.1l2-1.8l2.6,5.2L59.6,228z M59.1,231.3l0.3,0.4l-0.9,0
		L59.1,231.3z M61.3,223.1l-1.3-2.7l1.7-1.5C61.5,220.3,61.4,221.8,61.3,223.1z M136.3,96.5l5.9,1.3l-3,5.7l-5.9-1.6L136.3,96.5z
		 M140.4,106.4l5.3,1.4l-3.4,6.5l-5-2.2L140.4,106.4z M147.7,123.5l-6.4-1.8l2.2-4.2l6.4,2.8L147.7,123.5z M148.8,126.4l3.3,0.9
		l-2.6,5.8l-4.4-1.4L148.8,126.4z M150.9,136.1l4.2,1.3l-2.8,6.3l-4-1.7L150.9,136.1z M153.5,146.9l4.6,1.9l-2.5,5.1l-4.3-2
		L153.5,146.9z M156.8,157.3l3.9,1.8l-2.6,5.4l-3.9-2.1L156.8,157.3z M159.1,168l3.9,2.1l-2.6,5.3l-3.7-2.4L159.1,168z M161.5,178.9
		l3.3,2.1l-2.4,4.7l-3.3-2.1L161.5,178.9z M163.4,189.3l3.4,2.1l-2.3,4.8l-3.4-2.4L163.4,189.3z M165.4,199.9l2.7,1.9l-2.7,5.5
		l-2.6-2L165.4,199.9z M166.2,211.1l2.9,2.3l-2.3,4.8l-2.8-2.5L166.2,211.1z M165.6,220.5l-1.3,2.7c-0.1-1.3-0.2-2.7-0.4-4.2
		L165.6,220.5z M165,227.5l2.6-5.2l2,1.8l-3.5,4.1L165,227.5z M166.5,231.5l0.6,0.4l-1,0L166.5,231.5z M170.1,230.9l-2-1.3l1.9-2.3
		C170.1,228.5,170.1,229.7,170.1,230.9z M166.5,197.6l1.1-2.4c0.1,1.1,0.3,2.3,0.4,3.5L166.5,197.6z M162.6,176.7l1.6-3.2
		c0.3,1.6,0.6,3.2,0.9,4.8L162.6,176.7z M160.2,165.7l1.6-3.3c0.4,1.6,0.7,3.2,1,4.8L160.2,165.7z M157.9,155.1l1.6-3.1
		c0.4,1.4,0.7,2.9,1,4.3L157.9,155.1z M154.5,144.7l1.9-4.3c0.5,1.9,1,3.8,1.5,5.7L154.5,144.7z M151.9,133.8l1.6-3.6
		c0.4,1.5,0.9,3,1.3,4.5L151.9,133.8z M144.7,115.3l2.6-5c0.8,2.4,1.6,4.8,2.4,7.2L144.7,115.3z M141.6,104.1l2.1-4
		c0.6,1.7,1.2,3.4,1.8,5.1L141.6,104.1z M137.5,94.2l1.7-2.9c0.9,1.1,1.7,2.3,2.6,3.4c0.1,0.2,0.1,0.3,0.2,0.5L137.5,94.2z
		 M202.6,227.9l0.4,0.2l-0.4,0.3C202.7,228.3,202.7,228.1,202.6,227.9z M205.6,229.2l1.2,0.5H205L205.6,229.2z M207.6,227.4l3.4-3
		c0.1,1.5,0.3,3,0.4,4.6L207.6,227.4z"/>
	<path class="st0" d="M127.2,36c0,0-3.7-0.9-1.9-2.2s3-2.7,3-2.7l-3.8-1.8c0,0,1.4-7.3-9.1-8.2c0,0,1.4-2.5-0.2-3.6
		c-1.6-1,1.1-1.8,1.1-1.8L113.5,0L110,15.6c0,0,1.6,0.8,0.9,2s-1.4,1.6,0,3.4c0,0-11.2,1.1-9.3,8.3l-4,1.7l2.4,2.4
		c0,0,2.3,1.2-0.1,2c-2.4,0.8-9.5,3.6,2.5,8l11.2,4.7c0,0,8.6-3.1,12.1-5C129.2,41.2,132.9,39.1,127.2,36z M111.8,36h-7.2l-1.8-3.3
		l9,1V36z M121.5,36h-7.2v-2.2l9-1L121.5,36z"/>
</g>
</svg>
