<?xml version="1.0" encoding="utf-8"?>
<!-- Generator: Adobe Illustrator 26.0.1, SVG Export Plug-In . SVG Version: 6.00 Build 0)  -->
<svg version="1.1" id="Layer_1" xmlns="http://www.w3.org/2000/svg" xmlns:xlink="http://www.w3.org/1999/xlink" x="0px" y="0px"
	 viewBox="0 0 345.7 337" style="enable-background:new 0 0 345.7 337;" xml:space="preserve">
<style type="text/css">
	.st0{fill:#347A2A;}
	.st1{enable-background:new    ;}
	.st2{fill:#202E24;}
</style>
<g>
	<rect x="60" y="258.1" class="st0" width="225.6" height="7"/>
	<rect x="63.4" y="253.6" class="st0" width="218.9" height="4.5"/>
	<path class="st0" d="M273.9,255.1c0-0.1,0-0.1,0-0.2c0-0.1,0-0.2,0-0.3c0,0,0,0,0,0c-0.2-3-0.4-6.1-0.7-9.1c0,0,0,0,0,0
		c0,0,0,0,0-0.1c-0.4-3.5-0.8-7-1.4-10.5c0-0.1,0-0.3,0-0.4c0-0.1,0-0.1-0.1-0.1c-0.6-3.6-1.3-7.3-2-10.9c0-0.1,0-0.3,0-0.4
		c0-0.1-0.1-0.1-0.1-0.2c-0.7-3.2-1.4-6.4-2.2-9.7c0-0.1,0-0.3,0-0.4c0-0.1-0.1-0.1-0.1-0.2c-1.8-6.9-3.8-13.7-6.1-20.4
		c0-0.1,0-0.3,0-0.4c0-0.1-0.1-0.2-0.2-0.4c-1.1-3.4-2.4-6.7-3.6-10c0-0.2,0-0.3-0.1-0.5c-0.1-0.2-0.2-0.3-0.3-0.4
		c-1.2-3.1-2.4-6.2-3.7-9.2c0-0.1,0-0.3-0.1-0.4c-0.1-0.2-0.2-0.3-0.3-0.4c-1.5-3.6-3-7.1-4.6-10.5c0-0.2,0-0.3-0.1-0.5
		c-0.1-0.2-0.2-0.3-0.3-0.4c-1.4-3-2.8-6-4.2-9c0-0.2,0-0.3-0.1-0.5c-0.1-0.2-0.2-0.3-0.4-0.5c-0.9-1.9-1.9-3.8-2.8-5.6
		c0-0.1,0-0.2,0-0.2c-0.1-0.2-0.2-0.4-0.4-0.6c-2-4-4.1-7.9-6.2-11.7c0-0.1,0-0.2,0-0.3c-0.1-0.2-0.2-0.4-0.4-0.5
		c-1.7-3.1-3.4-6.1-5.1-9.1c0-0.1,0-0.2,0-0.3c-0.1-0.2-0.2-0.4-0.4-0.5c-1.8-3.1-3.6-6.1-5.4-9c0-0.1,0-0.2,0-0.2
		c-0.1-0.2-0.2-0.4-0.4-0.5c-2.1-3.4-4.1-6.6-6.1-9.7c0-0.1,0-0.1,0-0.2c-0.1-0.2-0.2-0.3-0.4-0.4c-1.9-3-3.8-5.8-5.6-8.4
		c0-0.1,0-0.1,0-0.1c-0.1-0.2-0.2-0.3-0.4-0.4c-2.2-3.3-4.3-6.3-6.2-9.1c0,0,0,0,0-0.1c-0.1-0.1-0.2-0.2-0.3-0.3
		c-2.7-3.8-5.1-7.1-7.1-9.8c0,0,0-0.1-0.1-0.1c-2.6-3.4-4.5-5.9-5.5-7.2c0,0,0-0.1,0-0.1c0,0,0,0,0,0c0-0.2,0-0.3,0-0.5
		c0,0,0-0.1-0.1-0.1c0,0,0,0,0-0.1c0,0,0,0-0.1-0.1c-0.1-0.2-0.2-0.3-0.3-0.4c0.2-0.4,0.5-0.7,0.7-1.1c0,0,0,0,0-0.1
		c0.1-0.2,0.2-0.4,0.2-0.6c0,0,0,0,0-0.1c0-0.1,0-0.3-0.1-0.4c0,0-0.1-0.1-0.1-0.1c0,0,0,0,0-0.1c0,0-0.1,0-0.1-0.1
		c-0.1-0.1-0.2-0.2-0.3-0.3c-0.1,0-0.1-0.1-0.1-0.1c-0.2-0.1-0.4-0.1-0.6-0.1c0,0,0,0-0.1,0l-20.3,0.4l-12.9-0.3c0,0,0,0-0.1,0
		c-0.2,0-0.4,0-0.6,0.1c-0.1,0-0.1,0.1-0.2,0.1c-0.1,0.1-0.2,0.2-0.3,0.3c0,0-0.1,0-0.1,0.1c0,0,0,0,0,0.1c0,0-0.1,0.1-0.1,0.1
		c0,0.1-0.1,0.3-0.1,0.4c0,0,0,0,0,0.1c0,0.2,0.1,0.4,0.2,0.6c0,0,0,0,0,0.1c0.2,0.3,0.4,0.7,0.6,1c-0.1,0.1-0.2,0.2-0.3,0.3
		c0,0-0.1,0-0.1,0.1s0,0,0,0.1c0,0-0.1,0.1-0.1,0.1c0,0.2,0,0.3,0,0.5c0,0,0,0,0,0c0,0,0,0.1,0,0.1c-1.1,1.3-3,3.8-5.5,7.2
		c0,0,0,0.1-0.1,0.1c-2,2.7-4.4,6-7.1,9.8c-0.1,0.1-0.2,0.2-0.3,0.4c0,0,0,0,0,0.1c-1.9,2.8-4,5.8-6.2,9c-0.2,0.1-0.3,0.3-0.4,0.5
		c0,0.1,0,0.1,0,0.1c-1.8,2.7-3.6,5.4-5.5,8.4c-0.1,0.1-0.3,0.3-0.4,0.4c0,0.1,0,0.1,0,0.2c-2,3.1-4,6.3-6.1,9.7
		c-0.2,0.1-0.3,0.3-0.4,0.5c0,0.1,0,0.2,0,0.2c-1.8,2.9-3.6,5.9-5.4,9c-0.2,0.1-0.3,0.3-0.4,0.5c0,0.1,0,0.2-0.1,0.3
		c-1.7,2.9-3.4,6-5.1,9.1c-0.2,0.1-0.3,0.3-0.4,0.5c0,0.1,0,0.2-0.1,0.3c-2.1,3.8-4.1,7.7-6.2,11.7c-0.2,0.2-0.4,0.4-0.4,0.6
		c0,0.1,0,0.2,0,0.2c-0.9,1.9-1.9,3.7-2.8,5.6c-0.2,0.1-0.3,0.3-0.4,0.5c-0.1,0.2-0.1,0.3-0.1,0.5c-1.4,2.9-2.9,5.9-4.2,9
		c-0.1,0.1-0.2,0.2-0.3,0.4c-0.1,0.1-0.1,0.3-0.1,0.5c-1.6,3.4-3.1,7-4.6,10.5c-0.1,0.1-0.2,0.3-0.3,0.4c-0.1,0.1-0.1,0.3-0.1,0.4
		c-1.3,3-2.5,6.1-3.7,9.2c-0.1,0.1-0.2,0.3-0.3,0.4c-0.1,0.2-0.1,0.3-0.1,0.5c-1.2,3.3-2.4,6.6-3.6,9.9c-0.1,0.1-0.2,0.2-0.2,0.4
		c-0.1,0.1,0,0.3,0,0.4c-2.3,6.7-4.3,13.5-6.1,20.4c0,0.1-0.1,0.1-0.1,0.2c0,0.1,0,0.3,0,0.4c-0.8,3.2-1.6,6.4-2.2,9.6
		c0,0.1-0.1,0.1-0.1,0.2c0,0.1-0.1,0.3,0,0.5c-0.8,3.6-1.4,7.3-2,10.9c0,0.1-0.1,0.1-0.1,0.1c0,0.1,0,0.3,0,0.4
		c-0.5,3.5-1,7-1.4,10.4c0,0,0,0,0,0.1c0,0,0,0,0,0c-0.3,3-0.6,6.1-0.7,9.1c0,0,0,0,0,0c0,0.1,0,0.2,0,0.3c0,0.1,0,0.1,0,0.2
		c0,0,0,0,0,0c0,0,0.1,0,0.1,0.1c0.1,0.1,0.1,0.2,0.2,0.3c0.1,0.1,0.1,0.1,0.2,0.1s0.1,0.1,0.1,0.1c0.2,0.1,0.4,0.2,0.6,0.2
		c0,0,0,0,0,0h0h11.1c0.2,0,0.3,0,0.5-0.1c0,0,0.1-0.1,0.1-0.1c0.1-0.1,0.2-0.1,0.3-0.2c0,0,0,0,0,0c0,0,0.1-0.1,0.1-0.1
		c0.1-0.1,0.1-0.1,0.1-0.2s0-0.1,0.1-0.2c0-0.1,0-0.1,0-0.2c0-0.7,3.3-56.7,53.2-128.6c-0.4,1.2-0.9,2.5-1.3,3.7
		c-0.1,0.1-0.1,0.1-0.2,0.2c-0.1,0.2-0.1,0.4-0.1,0.6c-1.3,3.9-2.7,7.9-4,12c-0.1,0.1-0.2,0.2-0.2,0.4c0,0.1,0,0.2,0,0.4
		c-0.6,2-1.2,4-1.9,6c0,0.1-0.1,0.1-0.1,0.1c-0.1,0.2-0.1,0.4-0.1,0.6c-0.9,3.1-1.8,6.2-2.7,9.4c0,0.1-0.1,0.1-0.1,0.1
		c-0.1,0.2-0.1,0.4-0.1,0.6c-1,3.6-2,7.2-2.9,10.9c0,0.1-0.1,0.1-0.1,0.2c-0.1,0.2-0.1,0.4-0.1,0.5c-0.8,3.2-1.6,6.4-2.3,9.6
		c0,0.1-0.1,0.1-0.1,0.1c-0.1,0.2-0.1,0.3-0.1,0.5c-0.8,3.4-1.5,6.9-2.2,10.4c-0.1,0.2-0.1,0.4-0.1,0.6c-1.4,6.9-2.6,13.9-3.6,20.9
		c-0.1,0.2-0.1,0.3-0.1,0.5c-0.5,3.3-0.9,6.6-1.3,10c0,0.1,0,0.2,0,0.3c-0.4,3.8-0.8,7.6-1.1,11.4c0,0,0,0.1,0,0.1
		c-0.3,3.6-0.5,7.3-0.6,10.9c0,0,0,0,0,0c-0.1,3.1-0.2,6.2-0.2,9.3c0,0,0,0.1,0,0.1c0,0.1,0,0.2,0.1,0.2c0,0.1,0.1,0.1,0.1,0.2
		c0,0,0,0.1,0,0.1c0,0,0.1,0,0.1,0.1c0,0,0.1,0.1,0.1,0.1c0.1,0.1,0.1,0.1,0.2,0.1c0.1,0,0.1,0.1,0.1,0.1c0.2,0.1,0.3,0.1,0.5,0.1
		c0,0,0,0,0,0l7.9-0.2c0,0,0.1,0,0.1,0c0.1,0,0.2,0,0.3-0.1c0.1,0,0.1-0.1,0.2-0.1c0.1,0,0.1,0,0.2-0.1c0,0,0,0,0,0
		c0.1-0.1,0.1-0.1,0.2-0.2c0-0.1,0.1-0.1,0.1-0.2c0-0.1,0-0.1,0.1-0.2s0.1-0.2,0.1-0.2c0,0,0,0,0,0c0-0.8,0.2-75.7,49.5-165
		c49.3,89.3,49.5,164.3,49.5,165.1c0,0,0,0,0,0c0,0.1,0,0.2,0.1,0.3c0,0.1,0,0.1,0.1,0.2c0,0.1,0.1,0.1,0.1,0.2
		c0.1,0.1,0.1,0.1,0.2,0.2c0,0,0,0,0,0c0.1,0,0.1,0.1,0.2,0.1s0.1,0.1,0.2,0.1c0.1,0,0.2,0.1,0.3,0.1c0,0,0.1,0,0.1,0l7.9,0.2
		c0,0,0,0,0,0c0.2,0,0.4,0,0.5-0.1c0,0,0.1-0.1,0.1-0.1c0.1,0,0.1-0.1,0.2-0.1c0,0,0.1-0.1,0.1-0.1c0,0,0.1,0,0.1-0.1s0-0.1,0-0.1
		c0-0.1,0.1-0.1,0.1-0.2c0-0.1,0-0.2,0-0.2c0,0,0-0.1,0-0.1c0-3.1-0.1-6.2-0.2-9.3c0,0,0,0,0-0.1c-0.1-3.6-0.3-7.2-0.6-10.8
		c0-0.1,0-0.2,0-0.2c-0.3-3.8-0.6-7.6-1-11.4c0-0.1,0-0.2,0-0.3c-0.4-3.3-0.8-6.7-1.3-10c0-0.2,0-0.4-0.1-0.5c-1-7-2.2-14-3.6-20.9
		c0-0.2,0-0.4-0.1-0.6c-0.7-3.5-1.4-7-2.2-10.4c0-0.2,0-0.4-0.1-0.5c0-0.1-0.1-0.1-0.1-0.2c-0.7-3.2-1.5-6.4-2.3-9.6
		c0-0.2,0-0.4-0.1-0.5c0-0.1-0.1-0.1-0.1-0.2c-0.9-3.7-1.9-7.3-2.9-10.9c0-0.2,0-0.4-0.1-0.6c0-0.1-0.1-0.1-0.1-0.1
		c-0.9-3.2-1.8-6.3-2.7-9.4c0-0.2,0-0.4-0.1-0.6c0-0.1-0.1-0.1-0.1-0.1c-0.6-2-1.2-4-1.9-6c0-0.1,0-0.2,0-0.4c0-0.1-0.1-0.3-0.2-0.4
		c-1.3-4.1-2.6-8.1-4-12c0-0.2,0-0.4-0.1-0.5c0-0.1-0.1-0.1-0.2-0.2c-0.5-1.4-0.9-2.7-1.4-4c50,71.9,53.2,128,53.3,128.7
		c0,0.1,0,0.1,0,0.2c0,0.1,0,0.2,0.1,0.2s0.1,0.1,0.1,0.2c0,0.1,0,0.1,0.1,0.1c0,0,0,0,0,0c0.1,0.1,0.2,0.1,0.3,0.2
		c0,0,0.1,0.1,0.1,0.1c0.1,0.1,0.3,0.1,0.5,0.1h11h0c0,0,0,0,0,0c0.2,0,0.4-0.1,0.6-0.2c0,0,0.1-0.1,0.1-0.1c0,0,0.1-0.1,0.2-0.1
		c0.1-0.1,0.1-0.2,0.2-0.3C273.8,255.2,273.8,255.2,273.9,255.1C273.9,255.1,273.9,255.1,273.9,255.1z M260.9,240.3l3.4,2.1
		l-2.4,3.8C261.7,244.5,261.4,242.5,260.9,240.3z M258.7,230.1l3.1,1.6l-2,3.1C259.5,233.3,259.1,231.7,258.7,230.1z M255.7,218.8
		l4.3,2l-2.6,4.1C256.8,222.9,256.3,220.9,255.7,218.8z M252.5,208.8l4,1.6l-2.3,3.4C253.6,212.2,253.1,210.5,252.5,208.8z
		 M248.7,198.4l4.5,1.9l-2.4,3.8C250.2,202.2,249.5,200.3,248.7,198.4z M244.6,188l4.7,1.7l-2.5,3.9
		C246.1,191.8,245.4,189.9,244.6,188z M240,177.8l5.3,1.6l-2.7,4.1C241.8,181.6,240.9,179.7,240,177.8z M235.3,168.1l4.9,1.3
		l-2.3,3.9C237.1,171.6,236.2,169.9,235.3,168.1z M229.9,157.8l5.9,1.2l-2.8,4.7C232,161.8,231,159.8,229.9,157.8z M224.4,148.2
		l7.6,1.3l-4.2,4.6C226.7,152.2,225.6,150.2,224.4,148.2z M218.8,139l5.8,1.7l-2.5,3.7C221,142.6,219.9,140.8,218.8,139z
		 M212.1,128.8l7.2,1.3l-3.3,4.8C214.8,132.8,213.5,130.8,212.1,128.8z M205.6,119.4l7.4,1.1l-3.4,4.6
		C208.3,123.2,206.9,121.3,205.6,119.4z M211.9,148.4l-1.6-0.4l1-1.5C211.5,147.1,211.7,147.7,211.9,148.4z M226.7,212.1l-2.2-1.4
		l1.5-2.9C226.3,209.2,226.5,210.7,226.7,212.1z M229.2,234l-1.9-1.4l1.5-3C229,231,229.1,232.5,229.2,234z M229.9,244.6l-1.2-1.1
		l1-2.1C229.8,242.6,229.9,243.6,229.9,244.6z M222.8,232.1l1.4,1.1l-1,2.1C223.1,234.3,222.9,233.2,222.8,232.1z M221.1,220.5
		l2.3,1.6l-1.5,3.1C221.6,223.7,221.3,222.2,221.1,220.5z M219.2,210.3l2.1,1.3l-1.3,2.6C219.7,212.9,219.5,211.6,219.2,210.3z
		 M216.9,199.7l2.4,1.6l-1.4,2.9C217.6,202.7,217.3,201.2,216.9,199.7z M214.4,189l2.6,1.4l-1.5,3.1
		C215.1,192.1,214.8,190.6,214.4,189z M211.5,178.5l3.1,1.4l-1.7,3.4C212.4,181.7,212,180.1,211.5,178.5z M208.5,168.5l2.8,1.2
		l-1.4,3.2C209.4,171.4,209,170,208.5,168.5z M205,158l3.5,1.1l-1.8,4C206.2,161.4,205.6,159.7,205,158z M201.5,148.1l4.8,1.3
		l-2.8,4.1C202.8,151.7,202.2,149.9,201.5,148.1z M197.9,138.7l3.4,1.5l-1.6,3.1C199.1,141.8,198.5,140.3,197.9,138.7z M193.5,128.2
		l4.5,1.2l-2.2,4.2C195.1,131.8,194.3,130,193.5,128.2z M189.3,118.7l4.5,1l-2.2,4C190.8,122,190,120.3,189.3,118.7z M184.6,108.8
		l4.9,0.9l-2.3,4.4C186.4,112.4,185.5,110.6,184.6,108.8z M179.7,99.1l5.6,0.7l-2.8,4.8C181.6,102.8,180.7,101,179.7,99.1z
		 M174.9,90.1l4.8,0.5c0.1,0.2,0.3,0.3,0.4,0.5l-2.5,4C176.7,93.5,175.8,91.8,174.9,90.1z M168.1,95l-2.4-3.9
		c0.2-0.2,0.4-0.4,0.5-0.6l4.6-0.5C169.9,91.7,169,93.3,168.1,95z M163.2,104.5l-2.8-4.8L166,99C165,100.8,164.1,102.7,163.2,104.5z
		 M158.5,114l-2.3-4.4l4.9-0.9C160.2,110.5,159.4,112.3,158.5,114z M154.2,123.5l-2.2-4l4.5-1C155.7,120.2,154.9,121.8,154.2,123.5z
		 M149.9,133.4l-2.2-4.2l4.5-1.2C151.4,129.8,150.7,131.6,149.9,133.4z M146,143.2l-1.6-3.1l3.4-1.5
		C147.2,140.1,146.6,141.6,146,143.2z M142.2,153.3l-2.8-4.1l4.8-1.3C143.5,149.7,142.9,151.5,142.2,153.3z M138.9,162.9l-1.8-4
		l3.5-1.1C140.1,159.5,139.5,161.2,138.9,162.9z M135.9,172.7l-1.4-3.2l2.8-1.2C136.7,169.8,136.3,171.3,135.9,172.7z M132.8,183.2
		l-1.7-3.4l3.1-1.4C133.7,180,133.3,181.6,132.8,183.2z M130.2,193.4l-1.5-3.1l2.6-1.4C130.9,190.4,130.6,191.9,130.2,193.4z
		 M127.8,204l-1.4-2.9l2.5-1.6C128.4,201,128.1,202.5,127.8,204z M125.8,214l-1.3-2.6l2.1-1.3C126.2,211.5,126,212.8,125.8,214z
		 M123.9,225.1l-1.5-3.1l2.3-1.6C124.4,222,124.1,223.6,123.9,225.1z M122.5,235.2l-1-2.1l1.4-1.1
		C122.8,233.1,122.6,234.1,122.5,235.2z M115.6,250.8l1.9,2.3l-2,1.3C115.5,253.2,115.6,252,115.6,250.8z M116,241.4l1,2.1l-1.2,1.1
		C115.8,243.5,115.9,242.4,116,241.4z M116.9,229.4l1.5,3l-1.9,1.4C116.6,232.3,116.7,230.9,116.9,229.4z M119.7,207.7l1.5,2.9
		l-2.2,1.4C119.2,210.5,119.5,209.1,119.7,207.7z M134.4,146.2l1,1.5l-1.6,0.4C134,147.5,134.2,146.9,134.4,146.2z M136.1,125.1
		l-3.3-4.5l7.2-1C138.7,121.4,137.4,123.2,136.1,125.1z M129.6,134.8l-3.3-4.7l7.3-1.3C132.2,130.8,130.9,132.8,129.6,134.8z
		 M123.6,144.3l-2.5-3.7l5.8-1.7C125.8,140.8,124.7,142.6,123.6,144.3z M117.9,154.1l-4.2-4.6l7.6-1.3
		C120.1,150.2,119,152.2,117.9,154.1z M112.6,163.8l-2.8-4.7l5.9-1.2C114.7,159.8,113.7,161.8,112.6,163.8z M107.8,173.4l-2.3-3.9
		l4.9-1.3C109.5,169.9,108.7,171.6,107.8,173.4z M103.1,183.5l-2.7-4.1l5.3-1.6C104.8,179.7,103.9,181.6,103.1,183.5z M98.8,193.6
		l-2.4-3.9l4.7-1.7C100.3,189.9,99.6,191.8,98.8,193.6z M94.9,204l-2.4-3.8l4.5-1.9C96.2,200.3,95.5,202.2,94.9,204z M91.5,213.9
		l-2.3-3.4l3.9-1.6C92.6,210.5,92.1,212.2,91.5,213.9z M88.3,224.8l-2.6-4.1l4.3-2C89.4,220.9,88.9,222.9,88.3,224.8z M85.9,234.8
		l-2-3.1l3.1-1.6C86.6,231.7,86.2,233.3,85.9,234.8z M75.8,238.4l2,3.2l-2.7,1.6C75.4,241.6,75.6,240,75.8,238.4z M77.8,226.7l2.6,4
		l-3.6,1.9C77.1,230.6,77.4,228.6,77.8,226.7z M80.1,216.4l2.1,3.3l-3.2,1.5C79.3,219.6,79.7,218,80.1,216.4z M83,205.6l2.5,3.8
		l-4.1,1.7C81.9,209.2,82.4,207.4,83,205.6z M86.2,195.1l2.6,4l-4.5,1.9C84.9,199.1,85.5,197.1,86.2,195.1z M90,184.3l2.6,4.1
		l-4.7,1.7C88.6,188.2,89.3,186.2,90,184.3z M94,174.1l2.5,3.9l-4.7,1.4C92.5,177.6,93.3,175.9,94,174.1z M98.8,162.8l2.9,5.1
		l-5.8,1.6C96.9,167.2,97.8,165,98.8,162.8z M103.5,152.9l2.6,4.4l-5.1,1C101.7,156.4,102.6,154.6,103.5,152.9z M106.9,145.8l1.9,2
		l-3.2,0.6C106,147.6,106.5,146.7,106.9,145.8z M113.3,133.6l3.8,5.6l-8.1,2.3C110.5,138.8,111.9,136.2,113.3,133.6z M118.9,123.7
		l3.2,4.6l-6.5,1.1C116.7,127.4,117.8,125.5,118.9,123.7z M124.7,113.8l3.6,4.9l-7.1,1C122.4,117.6,123.5,115.7,124.7,113.8z
		 M131.1,103.5l3.8,5.5l-7.9,0.9C128.4,107.7,129.8,105.6,131.1,103.5z M137.1,94.3l3.8,4.9l-7.4,0.6
		C134.7,97.8,135.9,96,137.1,94.3z M143.7,84.6l4.5,5.5l-8.7,0.5C141,88.6,142.4,86.6,143.7,84.6z M150.8,74.8l4.4,5.6l-9,0.7
		C147.9,78.8,149.4,76.7,150.8,74.8z M199.5,81.1l-9-0.7l4.4-5.6C196.3,76.7,197.9,78.8,199.5,81.1z M206.2,90.7l-8.7-0.5l4.5-5.5
		C203.4,86.5,204.8,88.6,206.2,90.7z M212.2,99.7l-7.4-0.6l3.8-4.9C209.8,96,211,97.8,212.2,99.7z M218.7,109.9l-7.9-0.9l3.8-5.5
		C215.9,105.6,217.3,107.7,218.7,109.9z M224.5,119.6l-7-1l3.6-4.8C222.2,115.7,223.3,117.6,224.5,119.6z M230.1,129.4l-6.5-1.1
		l3.2-4.6C227.9,125.5,229,127.4,230.1,129.4z M236.6,141.6l-8.1-2.3l3.8-5.6C233.8,136.2,235.2,138.8,236.6,141.6z M240.1,148.4
		l-3.2-0.6l1.9-2C239.2,146.7,239.7,147.6,240.1,148.4z M244.8,158.3l-5.1-1l2.5-4.4C243.1,154.6,244,156.4,244.8,158.3z
		 M249.8,169.4l-5.8-1.6l2.9-5.1C247.9,165,248.8,167.2,249.8,169.4z M253.9,179.4l-4.7-1.4l2.5-3.9
		C252.5,175.9,253.2,177.6,253.9,179.4z M257.8,190.1l-4.7-1.7l2.6-4.1C256.4,186.2,257.1,188.2,257.8,190.1z M261.4,201l-4.5-1.9
		l2.6-4C260.2,197.1,260.8,199,261.4,201z M264.3,211l-4.1-1.7l2.5-3.8C263.3,207.4,263.8,209.2,264.3,211z M266.8,221.2l-3.2-1.5
		l2.1-3.3C266,218,266.4,219.6,266.8,221.2z M269,232.6l-3.6-1.9l2.6-4C268.3,228.6,268.7,230.6,269,232.6z M270.5,243.2l-2.7-1.6
		l2-3.2C270.1,240,270.3,241.6,270.5,243.2z M270,245.7l-4.8,4.2l-2.1-0.9l3.5-5.4L270,245.7z M265.7,240.3l-4.7-2.8l3-4.6l4.9,2.5
		L265.7,240.3z M263.1,229.6l-4.4-2.3l3.5-5.5l4.5,2.1L263.1,229.6z M261.3,218.6l-5.6-2.6l3.1-4.6l5.5,2.3L261.3,218.6z
		 M257.9,208.4l-5.4-2.2l3.1-4.8l5.5,2.3L257.9,208.4z M254.6,198.2l-6-2.6l3.2-5l6.3,2.2L254.6,198.2z M250.7,187.6l-6.2-2.2
		l3.4-5.2l6.3,1.9L250.7,187.6z M246.7,177.2l-7-2.1l2.9-5l7.4,2L246.7,177.2z M241.5,167.2l-6.5-1.8l3.4-5.9l6.8,1.3L241.5,167.2z
		 M237.1,156.7l-7-1.4l4.9-5.3l5.5,1L237.1,156.7z M234,147.4l-9.8-1.7l2.9-4.2l9.8,2.8L234,147.4z M226,138.5l-7.9-2.3l3.9-5.7
		l8.4,1.4L226,138.5z M220.9,127.8l-9.1-1.6l4-5.4l9.1,1.3L220.9,127.8z M149.8,106.5l-0.9-1.2c0.3-0.8,0.6-1.6,1-2.4l1.1,2.1
		C150.6,105.5,150.2,106,149.8,106.5z M154.6,98l-2.6,0.3l-0.3,0c0.4-0.9,0.7-1.7,1.1-2.6L154.6,98z M151.6,100.9l0.7-0.1l2.2-0.2
		c-0.6,0.8-1.2,1.5-1.8,2.3L151.6,100.9z M155.9,92.2l5.8-0.4c-1.2,1.4-2.4,2.8-3.5,4.2L155.9,92.2z M161.2,88.5l-5.6,0.6
		c0.8-1.8,1.6-3.6,2.3-5.2l2.2,2.8L161.2,88.5z M184.2,66.6l-1.2,1.2c-0.1-0.3-0.3-0.6-0.4-0.9L184.2,66.6z M167.9,70.2l3.2-0.7
		l0.3,0.4l-2.8,3.7l-2.7-2.7L167.9,70.2z M173.2,77.6l-0.6,0.1l-2.3-2.3l2.6-3.4l2.5,3.4L173.2,77.6z M179.8,71l-2.6,2.5l-2.8-3.7
		l0.3-0.4l1.8,0.4L179.8,71z M167.1,67.8l-1.9,0.4c0.1-0.3,0.3-0.5,0.4-0.8L167.1,67.8z M180.5,68.2l-1.9-0.4l1.5-0.3
		C180.2,67.8,180.3,68,180.5,68.2z M172.6,66l-1.4-0.5h2.8L172.6,66z M163.1,66.9c-0.1,0.3-0.3,0.5-0.4,0.8l-1.2-1.2L163.1,66.9z
		 M175.2,81.8L175.2,81.8C175.2,81.8,175.2,81.8,175.2,81.8L175.2,81.8z M180.2,78.7c1-1.6,1.9-3.2,2.9-4.9c0.8,1.7,1.7,3.5,2.6,5.6
		L180.2,78.7z M165.3,78.6l-5.4,0.7c0.9-1.9,1.7-3.8,2.5-5.4C163.4,75.4,164.4,77,165.3,78.6z M172.9,83c0.3,0.4,0.7,0.7,1,1.1
		l-1,1.6l-1-1.7C172.2,83.7,172.5,83.3,172.9,83z M187.8,84c0.8,1.7,1.5,3.5,2.3,5.3l-5.6-0.6l1.5-2.5L187.8,84z M191,98.1l1.9-2.3
		c0.4,0.8,0.7,1.7,1.1,2.5L191,98.1z M189.9,92.2l-2.3,3.9c-1.2-1.4-2.4-2.8-3.6-4.3L189.9,92.2z M194.1,101l-1,1.9
		c-0.6-0.8-1.2-1.5-1.8-2.3L194.1,101z M195.9,103c0.3,0.8,0.6,1.5,0.9,2.3l-0.9,1.1c-0.4-0.5-0.7-0.9-1.1-1.4L195.9,103z
		 M201.5,110.5c0-0.1,0-0.1,0-0.2l4.9,0.6l-3.1,4.4C202.7,113.7,202.1,112.1,201.5,110.5z M200.4,107.7c-0.3-0.7-0.5-1.3-0.8-2
		l3.3-4.3l9.5,0.7l-4.4,6.4L200.4,107.7z M198.6,103.1c-0.3-0.7-0.5-1.3-0.8-2l2.2,0.2L198.6,103.1z M196.7,98.5
		c-0.7-1.7-1.4-3.3-2.1-4.9l0.9-1.1l10.8,0.7l-4.5,5.7L196.7,98.5z M193.1,89.9c-1.1-2.5-2.1-4.8-3.1-7l9.6,0.7l-5.2,6.4L193.1,89.9
		z M184.9,71.8l7.9,1.7l-4.4,5.7C187.1,76.4,186,73.9,184.9,71.8z M157.3,79.1l-4.4-5.6l7.8-1.7C159.7,73.9,158.5,76.4,157.3,79.1z
		 M152.5,89.9L152.5,89.9l-1.2,0.1l-5.2-6.4l9.5-0.7C154.6,85.1,153.6,87.4,152.5,89.9z M151,93.6c-0.7,1.6-1.4,3.3-2.1,5l-5.1,0.4
		l-4.5-5.7l10.8-0.7L151,93.6z M147.9,101.1c-0.3,0.6-0.5,1.3-0.8,1.9l-1.4-1.8L147.9,101.1z M146,105.7c-0.3,0.7-0.5,1.3-0.8,2
		l-7.5,0.9l-4.4-6.4l9.5-0.7L146,105.7z M144.2,110.4c-0.6,1.6-1.3,3.3-1.9,5l-3-4.4L144.2,110.4z M140.4,117l-9.3,1.3l-4.3-5.8
		l9.7-1.2L140.4,117z M149.5,110.9l4.2-0.8l3,5.8l-6,1.3l-2.5-4.5C148.6,112.1,149,111.6,149.5,110.9z M151.8,108
		c0.1-0.2,0.3-0.3,0.4-0.5l0.2,0.4L151.8,108z M153.9,105.3c1.3-1.6,2.6-3.3,4-4.9l3.4,5.8l-6.3,1.2L153.9,105.3z M164,93l2.1,3.4
		l-5.6,0.7C161.7,95.8,162.8,94.4,164,93z M164.4,88.2l-2.2-2.8l-1.7-2.8l7-0.5c0.4,0.7,0.8,1.3,1.1,2c-1.2,1.3-2.4,2.7-3.6,4
		L164.4,88.2z M169.9,86.3c0.2,0.4,0.4,0.8,0.7,1.2l-1.9,0.2C169.1,87.2,169.5,86.8,169.9,86.3z M175.8,86.3
		c0.5,0.5,0.9,1.1,1.4,1.6l-2.2-0.2C175.3,87.2,175.5,86.7,175.8,86.3z M177.1,84c0.4-0.7,0.7-1.3,1.1-2l7.1,0.5l-1.4,2.2l-2.8,3.5
		l-0.4,0C179.6,86.8,178.4,85.4,177.1,84z M185.3,97.4l-5.8-0.8l2.2-3.5C183,94.5,184.2,95.9,185.3,97.4z M191.8,105.4l-1.1,2.1
		l-6.3-1.2l3.5-5.9C189.2,102.1,190.5,103.7,191.8,105.4z M193.5,107.5c0.2,0.2,0.3,0.4,0.5,0.7l-0.8-0.2L193.5,107.5z M196.4,111.1
		c0.4,0.6,0.8,1.1,1.2,1.7l-2.6,4.6l-6-1.3l3-5.8L196.4,111.1z M209.2,111.3l9.7,1.2l-4.3,5.7l-9.3-1.3L209.2,111.3z M185.9,69.5
		c0.1-0.2,0.2-0.4,0.4-0.6c0.8-0.8,1.5-1.6,2.3-2.4c0.8,1,1.9,2.4,3.3,4.3L185.9,69.5z M181.3,63h-0.7c0,0,0,0,0-0.1l1,0L181.3,63z
		 M157.1,66.5c0.7,0.7,1.4,1.4,2.1,2.1c0.2,0.3,0.4,0.6,0.6,0.9l-5.9,1.3C155.2,68.9,156.4,67.5,157.1,66.5z M130,120.9l3.9,5.3
		l-9.2,1.6l-3.9-5.6L130,120.9z M123.6,130.5l3.9,5.7l-7.9,2.3l-4.4-6.5L123.6,130.5z M108.8,144.2l9.8-2.8l2.9,4.2l-9.8,1.7
		L108.8,144.2z M110.8,150.1l4.9,5.3l-7,1.4l-3.3-5.7L110.8,150.1z M107.3,159.5l3.4,5.9l-6.5,1.8l-3.7-6.3L107.3,159.5z M103,170.1
		l2.9,5l-7,2.1l-3.3-5.1L103,170.1z M97.9,180.2l3.4,5.2l-6.3,2.2l-3.4-5.5L97.9,180.2z M94,190.6l3.2,5l-6,2.6l-3.4-5.3L94,190.6z
		 M90.1,201.3l3.1,4.8l-5.4,2.2l-3.2-4.8L90.1,201.3z M86.9,211.4L90,216l-5.6,2.6l-3.1-4.9L86.9,211.4z M83.5,221.8l3.4,5.5
		l-4.4,2.3l-3.6-5.6L83.5,221.8z M81.7,232.8l3,4.6l-4.7,2.8l-3.2-4.9L81.7,232.8z M79.2,243.7l3.5,5.4l-2.1,0.9l-4.8-4.2
		L79.2,243.7z M78,251.1l-3.7,1.6c0.1-1.5,0.2-3.1,0.4-4.6L78,251.1z M80.1,252.9l0.6,0.5h-1.8L80.1,252.9z M82.6,251.8l0.4-0.2
		c0,0.1,0,0.3-0.1,0.5L82.6,251.8z M83.8,246.2l-2.4-3.8l3.4-2.1C84.3,242.5,84,244.4,83.8,246.2z M143.8,118.6
		c0.9-1.2,1.8-2.4,2.7-3.6l1.6,2.9l-4.4,1C143.7,118.7,143.8,118.6,143.8,118.6z M149.4,120l3,5.3l-5.9,1.6l-3-5.7L149.4,120z
		 M144.1,127.7l-3.9,1.1c0.6-1.7,1.2-3.4,1.8-5.1L144.1,127.7z M145.2,129.9l3,5.8l-5,2.2l-3.4-6.5L145.2,129.9z M141,138.9l-5,2.2
		c0.8-2.4,1.6-4.9,2.4-7.2L141,138.9z M144.3,145.3l-6.4,1.8l-2.2-3.2l6.4-2.8L144.3,145.3z M136.9,149.9l3.7,5.3l-4.4,1.4l-2.6-5.8
		L136.9,149.9z M133.7,157.3l-2.9,0.9c0.4-1.5,0.9-3,1.3-4.5L133.7,157.3z M134.8,159.6l2.6,5.9l-4,1.7l-2.8-6.3L134.8,159.6z
		 M131.1,168.2l-3.4,1.4c0.5-1.9,1-3.8,1.5-5.7L131.1,168.2z M134.4,175.5l-4.3,2l-2.6-5.1l4.6-1.9L134.4,175.5z M127.8,178.6
		l-2.6,1.2c0.3-1.5,0.7-2.9,1.1-4.3L127.8,178.6z M128.9,180.8l2.6,5.2l-3.9,2.1l-2.6-5.4L128.9,180.8z M125.4,189.2l-2.6,1.4
		c0.3-1.6,0.7-3.2,1-4.8L125.4,189.2z M126.5,191.5l2.4,5l-3.7,2.4l-2.6-5.3L126.5,191.5z M123.1,200.2l-2.4,1.6
		c0.3-1.6,0.6-3.2,0.9-4.8L123.1,200.2z M124.2,202.4l2.3,4.8l-3.3,2.1l-2.4-4.7L124.2,202.4z M122.3,212.8l2.3,4.5l-3.4,2.4
		l-2.3-4.8L122.3,212.8z M119.2,221.2l-1.6,1.1c0.1-1.2,0.3-2.3,0.4-3.5L119.2,221.2z M120.3,223.4l2.6,5.4l-2.6,2l-2.7-5.5
		L120.3,223.4z M119.5,234.7l2.2,4.5l-2.8,2.5l-2.3-4.8L119.5,234.7z M119.6,251.7l-3.5-4.1l2-1.8l2.6,5.2L119.6,251.7z M119.2,255
		l0.3,0.4l-0.9,0L119.2,255z M121.4,246.7L120,244l1.7-1.5C121.6,244,121.5,245.4,121.4,246.7z M196.3,120.2l5.9,1.3l-3,5.7
		l-5.9-1.6L196.3,120.2z M200.5,130.1l5.3,1.4l-3.4,6.5l-5-2.2L200.5,130.1z M207.8,147.2l-6.4-1.8l2.2-4.2l6.4,2.8L207.8,147.2z
		 M208.8,150.1l3.3,0.9l-2.6,5.8l-4.4-1.4L208.8,150.1z M211,159.8l4.2,1.3l-2.8,6.3l-4-1.7L211,159.8z M213.6,170.6l4.6,1.9
		l-2.6,5.1l-4.3-2L213.6,170.6z M216.8,181l3.9,1.8l-2.6,5.4l-3.9-2.1L216.8,181z M219.2,191.6l3.9,2.1l-2.6,5.3l-3.7-2.4
		L219.2,191.6z M221.5,202.6l3.3,2.1l-2.4,4.7l-3.3-2.1L221.5,202.6z M223.4,212.9l3.4,2.1l-2.3,4.8l-3.4-2.4L223.4,212.9z
		 M225.4,223.6l2.7,1.9l-2.7,5.5l-2.6-2L225.4,223.6z M226.2,234.8l2.9,2.3l-2.3,4.8l-2.8-2.5L226.2,234.8z M225.7,244.2l-1.3,2.7
		c-0.1-1.3-0.2-2.7-0.4-4.2L225.7,244.2z M225,251.1l2.6-5.2l2,1.8l-3.5,4.1L225,251.1z M226.6,255.1l0.6,0.4l-1,0L226.6,255.1z
		 M230.2,254.5l-2-1.3l1.9-2.3C230.1,252.1,230.2,253.3,230.2,254.5z M226.5,221.3l1.1-2.4c0.1,1.1,0.3,2.3,0.4,3.5L226.5,221.3z
		 M222.6,200.3l1.6-3.2c0.3,1.6,0.6,3.2,0.9,4.8L222.6,200.3z M220.3,189.4l1.6-3.3c0.4,1.6,0.7,3.2,1,4.8L220.3,189.4z
		 M217.9,178.7l1.6-3.1c0.4,1.4,0.7,2.9,1.1,4.3L217.9,178.7z M214.6,168.3l1.9-4.3c0.5,1.9,1,3.8,1.5,5.7L214.6,168.3z M212,157.5
		l1.6-3.6c0.4,1.5,0.9,3,1.3,4.5L212,157.5z M204.7,139l2.6-5c0.8,2.4,1.6,4.8,2.4,7.2L204.7,139z M201.6,127.8l2.1-4
		c0.6,1.7,1.2,3.4,1.8,5.1L201.6,127.8z M197.6,117.9l1.7-2.9c0.9,1.1,1.7,2.3,2.6,3.4c0.1,0.2,0.1,0.3,0.2,0.5L197.6,117.9z
		 M262.7,251.6l0.4,0.2l-0.4,0.3C262.7,251.9,262.7,251.8,262.7,251.6z M265.6,252.9l1.2,0.5H265L265.6,252.9z M267.7,251.1l3.4-2.9
		c0.1,1.5,0.3,3.1,0.4,4.6L267.7,251.1z"/>
	<path class="st0" d="M187.2,59.7c0,0-3.7-0.9-1.9-2.2s3-2.7,3-2.7l-3.8-1.8c0,0,1.4-7.3-9.1-8.2c0,0,1.4-2.5-0.2-3.6
		c-1.6-1,1.1-1.8,1.1-1.8l-2.8-15.6L170,39.3c0,0,1.6,0.8,0.9,2s-1.4,1.6,0,3.4c0,0-11.2,1.1-9.4,8.3l-4,1.7l2.4,2.4
		c0,0,2.3,1.2-0.1,2c-2.4,0.8-9.5,3.6,2.5,8l11.2,4.7c0,0,8.6-3.1,12.1-5C189.2,64.9,192.9,62.7,187.2,59.7z M171.8,59.7h-7.2
		l-1.8-3.3l9,1V59.7z M181.6,59.7h-7.2v-2.2l9-1L181.6,59.7z"/>
</g>
<g class="st1">
	<path class="st2" d="M25.4,294.2c-0.6,0.9-1.4,1.5-2.5,2c-1.1,0.5-2.4,0.8-4,0.8c-2.4,0-4.3-0.5-5.8-1.6c-1.5-1.1-2.4-2.5-2.5-4.4
		H16c0.1,0.7,0.4,1.3,0.8,1.7c0.5,0.4,1.1,0.6,1.9,0.6c0.7,0,1.2-0.2,1.6-0.5c0.4-0.3,0.6-0.8,0.6-1.3c0-0.5-0.2-0.9-0.5-1.2
		c-0.3-0.3-0.8-0.6-1.3-0.8c-0.5-0.2-1.2-0.5-2.1-0.8c-1.3-0.4-2.4-0.8-3.3-1.2c-0.8-0.4-1.6-1-2.2-1.7c-0.6-0.8-0.9-1.8-0.9-3
		c0-1.1,0.3-2.1,1-3c0.6-0.8,1.5-1.5,2.6-1.9c1.1-0.4,2.4-0.7,3.9-0.7c2.3,0,4.2,0.5,5.6,1.5c1.4,1,2.2,2.4,2.3,4.2h-5.5
		c-0.1-0.6-0.4-1.1-0.8-1.5c-0.4-0.4-1-0.6-1.7-0.6c-0.6,0-1.1,0.1-1.4,0.4s-0.6,0.7-0.6,1.3c0,0.5,0.2,0.8,0.5,1.2s0.7,0.6,1.2,0.8
		c0.5,0.2,1.2,0.5,2.1,0.8c1.4,0.4,2.5,0.8,3.3,1.2c0.9,0.4,1.6,1,2.2,1.8c0.6,0.8,0.9,1.8,0.9,3.1C26.2,292.4,26,293.3,25.4,294.2z
		"/>
	<path class="st2" d="M38.7,282.2c0.9,0.5,1.6,1.2,2,2.2v-2.8h5.1v15.2h-5.1v-2.8c-0.4,0.9-1.1,1.6-2,2.2c-0.9,0.5-2,0.8-3.3,0.8
		c-1.4,0-2.6-0.3-3.7-0.9c-1.1-0.6-1.9-1.5-2.6-2.7s-0.9-2.6-0.9-4.1c0-1.6,0.3-3,0.9-4.2s1.5-2.1,2.6-2.7c1.1-0.6,2.3-0.9,3.7-0.9
		C36.7,281.4,37.8,281.7,38.7,282.2z M34.4,286.5c-0.7,0.7-1,1.6-1,2.7c0,1.2,0.3,2.1,1,2.7c0.7,0.7,1.5,1,2.6,1c1.1,0,2-0.3,2.6-1
		c0.7-0.7,1-1.6,1-2.7c0-1.1-0.3-2-1-2.7c-0.7-0.7-1.6-1-2.6-1C35.9,285.5,35.1,285.8,34.4,286.5z"/>
	<path class="st2" d="M64.4,283.2c1.1,1.2,1.7,2.8,1.7,4.8v8.8H61v-8.3c0-1-0.3-1.8-0.9-2.4c-0.6-0.6-1.4-0.9-2.3-0.9
		c-1,0-1.9,0.3-2.5,0.9c-0.6,0.6-0.9,1.5-0.9,2.6v8.1h-5.1v-15.2h5.1v2.8c0.5-0.9,1.2-1.6,2.1-2.2c0.9-0.5,2.1-0.8,3.3-0.8
		C61.8,281.4,63.3,282,64.4,283.2z"/>
	<path class="st2" d="M80.5,290v6.8h-5.1v-19.3h8.3c2.5,0,4.4,0.6,5.7,1.7c1.3,1.1,2,2.7,2,4.6c0,1.2-0.3,2.3-0.9,3.2
		c-0.6,0.9-1.5,1.7-2.6,2.2s-2.6,0.8-4.2,0.8H80.5z M86.2,283.8c0-1.7-1-2.5-3.1-2.5h-2.6v5h2.6C85.1,286.3,86.2,285.5,86.2,283.8z"
		/>
	<path class="st2" d="M109.5,290H98c0.1,1.1,0.4,2,1,2.5c0.6,0.5,1.3,0.8,2.2,0.8c0.8,0,1.4-0.2,1.9-0.5c0.5-0.3,0.8-0.8,1-1.3h5.4
		c-0.2,1.1-0.7,2-1.4,2.9s-1.7,1.5-2.8,2s-2.4,0.7-3.8,0.7c-1.6,0-3.1-0.3-4.3-0.9c-1.3-0.6-2.3-1.5-3-2.7c-0.7-1.2-1.1-2.6-1.1-4.1
		c0-1.6,0.4-3,1.1-4.2s1.7-2.1,3-2.7s2.7-0.9,4.4-0.9c1.6,0,3.1,0.3,4.4,0.9c1.3,0.6,2.2,1.5,2.9,2.6c0.7,1.1,1,2.4,1,3.9
		C109.7,289.2,109.6,289.6,109.5,290z M103.6,285.8c-0.6-0.5-1.4-0.8-2.3-0.8c-0.9,0-1.7,0.3-2.3,0.8c-0.6,0.5-1,1.3-1,2.2h6.5
		C104.5,287.1,104.2,286.3,103.6,285.8z"/>
	<path class="st2" d="M121.9,282.2c0.9,0.5,1.6,1.2,2,2.2v-7.7h5.1v20.2h-5.1v-2.8c-0.4,0.9-1.1,1.6-2,2.2c-0.9,0.5-2,0.8-3.3,0.8
		c-1.4,0-2.6-0.3-3.7-0.9c-1.1-0.6-1.9-1.5-2.6-2.7s-0.9-2.6-0.9-4.1c0-1.6,0.3-3,0.9-4.2s1.5-2.1,2.6-2.7c1.1-0.6,2.3-0.9,3.7-0.9
		C119.9,281.4,121,281.7,121.9,282.2z M117.6,286.5c-0.7,0.7-1,1.6-1,2.7c0,1.2,0.3,2.1,1,2.7c0.7,0.7,1.5,1,2.6,1
		c1.1,0,2-0.3,2.6-1c0.7-0.7,1-1.6,1-2.7c0-1.1-0.3-2-1-2.7c-0.7-0.7-1.6-1-2.6-1C119.2,285.5,118.3,285.8,117.6,286.5z"/>
	<path class="st2" d="M140.1,282.2c1-0.5,2.1-0.8,3.3-0.8v5h-1.5c-1.4,0-2.4,0.3-3.1,0.8c-0.7,0.5-1.1,1.4-1.1,2.7v6.9h-5.1v-15.2
		h5.1v2.9C138.3,283.5,139.1,282.8,140.1,282.2z"/>
	<path class="st2" d="M157.7,282.3c1.3,0.6,2.3,1.5,3.1,2.7c0.7,1.2,1.1,2.6,1.1,4.1s-0.4,3-1.1,4.1c-0.7,1.2-1.8,2.1-3.1,2.7
		c-1.3,0.6-2.8,0.9-4.4,0.9s-3.1-0.3-4.4-0.9c-1.3-0.6-2.3-1.5-3.1-2.7c-0.7-1.2-1.1-2.6-1.1-4.1s0.4-3,1.1-4.1
		c0.7-1.2,1.8-2.1,3.1-2.7c1.3-0.6,2.8-0.9,4.4-0.9S156.4,281.7,157.7,282.3z M150.8,286.4c-0.7,0.6-1,1.6-1,2.8
		c0,1.2,0.3,2.1,1,2.8c0.7,0.6,1.5,1,2.5,1c1,0,1.8-0.3,2.4-1s1-1.6,1-2.8c0-1.2-0.3-2.2-1-2.8s-1.5-1-2.4-1
		C152.3,285.4,151.5,285.8,150.8,286.4z"/>
	<path class="st2" d="M180.1,282.2c0.9,0.5,1.6,1.2,2,2.2v-7.7h5.1v20.2h-5.1v-2.8c-0.4,0.9-1.1,1.6-2,2.2s-2,0.8-3.3,0.8
		c-1.4,0-2.6-0.3-3.7-0.9c-1.1-0.6-1.9-1.5-2.6-2.7s-0.9-2.6-0.9-4.1c0-1.6,0.3-3,0.9-4.2s1.5-2.1,2.6-2.7c1.1-0.6,2.3-0.9,3.7-0.9
		C178.1,281.4,179.2,281.7,180.1,282.2z M175.8,286.5c-0.7,0.7-1,1.6-1,2.7c0,1.2,0.3,2.1,1,2.7c0.7,0.7,1.5,1,2.6,1
		c1.1,0,2-0.3,2.6-1c0.7-0.7,1-1.6,1-2.7c0-1.1-0.3-2-1-2.7c-0.7-0.7-1.6-1-2.6-1C177.4,285.5,176.5,285.8,175.8,286.5z"/>
	<path class="st2" d="M206.4,290h-11.5c0.1,1.1,0.4,2,1,2.5c0.6,0.5,1.3,0.8,2.2,0.8c0.8,0,1.4-0.2,1.9-0.5c0.5-0.3,0.8-0.8,1-1.3
		h5.4c-0.2,1.1-0.7,2-1.4,2.9c-0.7,0.8-1.7,1.5-2.8,2s-2.4,0.7-3.8,0.7c-1.6,0-3.1-0.3-4.3-0.9c-1.3-0.6-2.3-1.5-3-2.7
		c-0.7-1.2-1.1-2.6-1.1-4.1c0-1.6,0.4-3,1.1-4.2s1.7-2.1,3-2.7c1.3-0.6,2.7-0.9,4.4-0.9c1.6,0,3.1,0.3,4.4,0.9
		c1.3,0.6,2.2,1.5,2.9,2.6c0.7,1.1,1,2.4,1,3.9C206.5,289.2,206.5,289.6,206.4,290z M200.5,285.8c-0.6-0.5-1.4-0.8-2.3-0.8
		c-0.9,0-1.7,0.3-2.3,0.8c-0.6,0.5-1,1.3-1,2.2h6.5C201.4,287.1,201.1,286.3,200.5,285.8z"/>
	<path class="st2" d="M238.8,277.7v19.1h-5.1v-12l-4.5,12h-4.4l-4.6-12v12h-5.1v-19.1h6.2l5.7,13.3l5.6-13.3H238.8z"/>
	<path class="st2" d="M252,282.2c0.9,0.5,1.6,1.2,2,2.2v-2.8h5.1v15.2H254v-2.8c-0.4,0.9-1.1,1.6-2,2.2c-0.9,0.5-2,0.8-3.3,0.8
		c-1.4,0-2.6-0.3-3.7-0.9c-1.1-0.6-1.9-1.5-2.6-2.7c-0.6-1.2-0.9-2.6-0.9-4.1c0-1.6,0.3-3,0.9-4.2c0.6-1.2,1.5-2.1,2.6-2.7
		s2.3-0.9,3.7-0.9C250,281.4,251,281.7,252,282.2z M247.7,286.5c-0.7,0.7-1,1.6-1,2.7c0,1.2,0.3,2.1,1,2.7c0.7,0.7,1.5,1,2.6,1
		c1.1,0,2-0.3,2.6-1c0.7-0.7,1-1.6,1-2.7c0-1.1-0.3-2-1-2.7s-1.6-1-2.6-1C249.2,285.5,248.3,285.8,247.7,286.5z"/>
	<path class="st2" d="M275.5,283c1.5,1.1,2.4,2.6,2.7,4.5h-5.4c-0.2-0.7-0.5-1.2-1-1.5c-0.5-0.4-1.1-0.5-1.9-0.5
		c-0.9,0-1.6,0.3-2.2,1c-0.6,0.6-0.9,1.6-0.9,2.8c0,1.2,0.3,2.2,0.9,2.8c0.6,0.6,1.3,1,2.2,1c0.8,0,1.4-0.2,1.9-0.5
		c0.5-0.4,0.8-0.9,1-1.5h5.4c-0.4,1.9-1.3,3.4-2.7,4.5s-3.2,1.6-5.4,1.6c-1.6,0-3.1-0.3-4.3-0.9c-1.3-0.6-2.3-1.5-3-2.7
		c-0.7-1.2-1.1-2.6-1.1-4.1c0-1.6,0.4-3,1.1-4.2s1.7-2.1,3-2.7c1.3-0.6,2.7-0.9,4.4-0.9C272.2,281.4,274,281.9,275.5,283z"/>
	<path class="st2" d="M293.1,282.3c1.3,0.6,2.3,1.5,3.1,2.7c0.7,1.2,1.1,2.6,1.1,4.1s-0.4,3-1.1,4.1c-0.7,1.2-1.8,2.1-3.1,2.7
		c-1.3,0.6-2.8,0.9-4.4,0.9s-3.1-0.3-4.4-0.9c-1.3-0.6-2.3-1.5-3.1-2.7c-0.7-1.2-1.1-2.6-1.1-4.1s0.4-3,1.1-4.1
		c0.7-1.2,1.8-2.1,3.1-2.7c1.3-0.6,2.8-0.9,4.4-0.9S291.8,281.7,293.1,282.3z M286.2,286.4c-0.7,0.6-1,1.6-1,2.8
		c0,1.2,0.3,2.1,1,2.8c0.7,0.6,1.5,1,2.5,1c1,0,1.8-0.3,2.4-1c0.7-0.6,1-1.6,1-2.8c0-1.2-0.3-2.2-1-2.8c-0.7-0.6-1.5-1-2.4-1
		C287.7,285.4,286.9,285.8,286.2,286.4z"/>
	<path class="st2" d="M307.5,282.2c1-0.5,2.1-0.8,3.3-0.8v5h-1.5c-1.4,0-2.4,0.3-3.1,0.8s-1.1,1.4-1.1,2.7v6.9h-5.1v-15.2h5.1v2.9
		C305.7,283.5,306.5,282.8,307.5,282.2z"/>
	<path class="st2" d="M313.3,275.5c0.6-0.5,1.3-0.7,2.2-0.7s1.6,0.2,2.2,0.7c0.6,0.5,0.8,1.1,0.8,1.8c0,0.7-0.3,1.3-0.8,1.7
		c-0.6,0.5-1.3,0.7-2.2,0.7s-1.6-0.2-2.2-0.7c-0.6-0.5-0.8-1-0.8-1.7C312.4,276.6,312.7,276,313.3,275.5z M318,281.6v15.2h-5.1
		v-15.2H318z"/>
	<path class="st2" d="M332.6,282.8c1.3,1,2.1,2.2,2.4,3.8h-4.8c-0.1-0.6-0.5-1.1-0.9-1.5c-0.5-0.4-1.1-0.5-1.8-0.5
		c-0.6,0-1,0.1-1.3,0.3c-0.3,0.2-0.4,0.5-0.4,1c0,0.5,0.3,0.8,0.8,1.1s1.4,0.5,2.6,0.7c1.3,0.3,2.3,0.6,3.1,0.8
		c0.8,0.3,1.5,0.7,2.1,1.4c0.6,0.6,0.9,1.5,0.9,2.6c0,0.9-0.3,1.6-0.8,2.3c-0.5,0.7-1.3,1.2-2.2,1.6c-1,0.4-2.1,0.6-3.5,0.6
		c-2.2,0-4-0.5-5.4-1.4c-1.4-0.9-2.2-2.2-2.5-3.9h4.9c0.1,0.7,0.4,1.2,0.9,1.5c0.5,0.3,1.2,0.5,2,0.5c0.6,0,1-0.1,1.3-0.4
		c0.3-0.2,0.4-0.6,0.4-1c0-0.5-0.3-0.9-0.8-1.1c-0.5-0.2-1.4-0.5-2.7-0.7c-1.2-0.2-2.2-0.5-3-0.8c-0.8-0.3-1.5-0.7-2.1-1.3
		c-0.6-0.6-0.9-1.4-0.9-2.5c0-1.4,0.6-2.5,1.7-3.3s2.7-1.3,4.8-1.3C329.7,281.4,331.4,281.9,332.6,282.8z"/>
</g>
</svg>
