<?xml version="1.0" encoding="utf-8"?>
<!-- Generator: Adobe Illustrator 26.5.0, SVG Export Plug-In . SVG Version: 6.00 Build 0)  -->
<svg version="1.1" id="Layer_1" xmlns="http://www.w3.org/2000/svg" xmlns:xlink="http://www.w3.org/1999/xlink" x="0px" y="0px"
	 viewBox="0 0 324.7 22.4" style="enable-background:new 0 0 324.7 22.4;" xml:space="preserve">
<style type="text/css">
	.st0{enable-background:new    ;}
	.st1{fill:#202E24;}
</style>
<g class="st0">
	<path class="st1" d="M14.8,19.4c-0.6,0.9-1.4,1.5-2.5,2s-2.4,0.8-4,0.8c-2.4,0-4.3-0.5-5.8-1.6S0.1,18.1,0,16.2h5.4
		c0.1,0.7,0.4,1.3,0.8,1.7c0.5,0.4,1.1,0.6,1.9,0.6c0.7,0,1.2-0.2,1.6-0.5s0.6-0.8,0.6-1.3s-0.2-0.9-0.5-1.2S9,14.9,8.5,14.7
		s-1.2-0.5-2.1-0.8c-1.3-0.4-2.4-0.8-3.3-1.2c-0.8-0.4-1.6-1-2.2-1.7C0.3,10.2,0,9.2,0,8c0-1.1,0.3-2.1,1-3c0.6-0.8,1.5-1.5,2.6-1.9
		S6,2.4,7.5,2.4c2.3,0,4.2,0.5,5.6,1.5c1.4,1,2.2,2.4,2.3,4.2H9.9C9.8,7.5,9.5,7,9.1,6.6S8.1,6,7.4,6C6.8,6,6.3,6.1,6,6.4
		S5.4,7.1,5.4,7.7c0,0.5,0.2,0.8,0.5,1.2s0.7,0.6,1.2,0.8c0.5,0.2,1.2,0.5,2.1,0.8c1.4,0.4,2.5,0.8,3.3,1.2c0.9,0.4,1.6,1,2.2,1.8
		s0.9,1.8,0.9,3.1C15.6,17.6,15.4,18.5,14.8,19.4z"/>
	<path class="st1" d="M28.1,7.4c0.9,0.5,1.6,1.2,2,2.2V6.8h5.1V22h-5.1v-2.8c-0.4,0.9-1.1,1.6-2,2.2c-0.9,0.5-2,0.8-3.3,0.8
		c-1.4,0-2.6-0.3-3.7-0.9c-1.1-0.6-1.9-1.5-2.6-2.7s-0.9-2.6-0.9-4.1c0-1.6,0.3-3,0.9-4.2c0.6-1.2,1.5-2.1,2.6-2.7
		c1.1-0.6,2.3-0.9,3.7-0.9C26.1,6.6,27.2,6.9,28.1,7.4z M23.8,11.7c-0.7,0.7-1,1.6-1,2.7c0,1.2,0.3,2.1,1,2.7c0.7,0.7,1.5,1,2.6,1
		s2-0.3,2.6-1c0.7-0.7,1-1.6,1-2.7s-0.3-2-1-2.7s-1.6-1-2.6-1C25.3,10.7,24.5,11,23.8,11.7z"/>
	<path class="st1" d="M53.8,8.4c1.1,1.2,1.7,2.8,1.7,4.8V22h-5.1v-8.3c0-1-0.3-1.8-0.9-2.4c-0.6-0.6-1.4-0.9-2.3-0.9
		c-1,0-1.9,0.3-2.5,0.9s-0.9,1.5-0.9,2.6V22h-5.1V6.8h5.1v2.8C44.3,8.7,45,8,45.9,7.4c0.9-0.5,2.1-0.8,3.3-0.8
		C51.2,6.6,52.7,7.2,53.8,8.4z"/>
	<path class="st1" d="M69.9,15.2V22h-5.1V2.7h8.3c2.5,0,4.4,0.6,5.7,1.7c1.3,1.1,2,2.7,2,4.6c0,1.2-0.3,2.3-0.9,3.2
		c-0.6,0.9-1.5,1.7-2.6,2.2s-2.6,0.8-4.2,0.8H69.9L69.9,15.2z M75.6,9c0-1.7-1-2.5-3.1-2.5h-2.6v5h2.6C74.5,11.5,75.6,10.7,75.6,9z"
		/>
	<path class="st1" d="M98.9,15.2H87.4c0.1,1.1,0.4,2,1,2.5s1.3,0.8,2.2,0.8c0.8,0,1.4-0.2,1.9-0.5s0.8-0.8,1-1.3h5.4
		c-0.2,1.1-0.7,2-1.4,2.9s-1.7,1.5-2.8,2s-2.4,0.7-3.8,0.7c-1.6,0-3.1-0.3-4.3-0.9c-1.3-0.6-2.3-1.5-3-2.7s-1.1-2.6-1.1-4.1
		c0-1.6,0.4-3,1.1-4.2s1.7-2.1,3-2.7s2.7-0.9,4.4-0.9c1.6,0,3.1,0.3,4.4,0.9s2.2,1.5,2.9,2.6c0.7,1.1,1,2.4,1,3.9
		C99.1,14.4,99,14.8,98.9,15.2z M93,11c-0.6-0.5-1.4-0.8-2.3-0.8S89,10.5,88.4,11c-0.6,0.5-1,1.3-1,2.2h6.5
		C93.9,12.3,93.6,11.5,93,11z"/>
	<path class="st1" d="M111.3,7.4c0.9,0.5,1.6,1.2,2,2.2V1.9h5.1v20.2h-5.1v-2.8c-0.4,0.9-1.1,1.6-2,2.2c-0.9,0.5-2,0.8-3.3,0.8
		c-1.4,0-2.6-0.3-3.7-0.9s-1.9-1.5-2.6-2.7s-0.9-2.6-0.9-4.1c0-1.6,0.3-3,0.9-4.2s1.5-2.1,2.6-2.7s2.3-0.9,3.7-0.9
		C109.3,6.6,110.4,6.9,111.3,7.4z M107,11.7c-0.7,0.7-1,1.6-1,2.7c0,1.2,0.3,2.1,1,2.7c0.7,0.7,1.5,1,2.6,1s2-0.3,2.6-1
		c0.7-0.7,1-1.6,1-2.7s-0.3-2-1-2.7s-1.6-1-2.6-1S107.7,11,107,11.7z"/>
	<path class="st1" d="M129.5,7.4c1-0.5,2.1-0.8,3.3-0.8v5h-1.5c-1.4,0-2.4,0.3-3.1,0.8c-0.7,0.5-1.1,1.4-1.1,2.7V22H122V6.8h5.1v2.9
		C127.7,8.7,128.5,8,129.5,7.4z"/>
	<path class="st1" d="M147.1,7.5c1.3,0.6,2.3,1.5,3.1,2.7c0.7,1.2,1.1,2.6,1.1,4.1s-0.4,3-1.1,4.1c-0.7,1.2-1.8,2.1-3.1,2.7
		s-2.8,0.9-4.4,0.9s-3.1-0.3-4.4-0.9c-1.3-0.6-2.3-1.5-3.1-2.7c-0.7-1.2-1.1-2.6-1.1-4.1s0.4-3,1.1-4.1c0.7-1.2,1.8-2.1,3.1-2.7
		s2.8-0.9,4.4-0.9S145.8,6.9,147.1,7.5z M140.2,11.6c-0.7,0.6-1,1.6-1,2.8s0.3,2.1,1,2.8c0.7,0.6,1.5,1,2.5,1s1.8-0.3,2.4-1
		s1-1.6,1-2.8s-0.3-2.2-1-2.8s-1.5-1-2.4-1C141.7,10.6,140.9,11,140.2,11.6z"/>
	<path class="st1" d="M169.5,7.4c0.9,0.5,1.6,1.2,2,2.2V1.9h5.1v20.2h-5.1v-2.8c-0.4,0.9-1.1,1.6-2,2.2s-2,0.8-3.3,0.8
		c-1.4,0-2.6-0.3-3.7-0.9c-1.1-0.6-1.9-1.5-2.6-2.7s-0.9-2.6-0.9-4.1c0-1.6,0.3-3,0.9-4.2s1.5-2.1,2.6-2.7s2.3-0.9,3.7-0.9
		C167.5,6.6,168.6,6.9,169.5,7.4z M165.2,11.7c-0.7,0.7-1,1.6-1,2.7c0,1.2,0.3,2.1,1,2.7c0.7,0.7,1.5,1,2.6,1s2-0.3,2.6-1
		c0.7-0.7,1-1.6,1-2.7s-0.3-2-1-2.7s-1.6-1-2.6-1C166.8,10.7,165.9,11,165.2,11.7z"/>
	<path class="st1" d="M195.8,15.2h-11.5c0.1,1.1,0.4,2,1,2.5s1.3,0.8,2.2,0.8c0.8,0,1.4-0.2,1.9-0.5s0.8-0.8,1-1.3h5.4
		c-0.2,1.1-0.7,2-1.4,2.9c-0.7,0.8-1.7,1.5-2.8,2s-2.4,0.7-3.8,0.7c-1.6,0-3.1-0.3-4.3-0.9c-1.3-0.6-2.3-1.5-3-2.7s-1.1-2.6-1.1-4.1
		c0-1.6,0.4-3,1.1-4.2s1.7-2.1,3-2.7s2.7-0.9,4.4-0.9c1.6,0,3.1,0.3,4.4,0.9c1.3,0.6,2.2,1.5,2.9,2.6s1,2.4,1,3.9
		C195.9,14.4,195.9,14.8,195.8,15.2z M189.9,11c-0.6-0.5-1.4-0.8-2.3-0.8c-0.9,0-1.7,0.3-2.3,0.8s-1,1.3-1,2.2h6.5
		C190.8,12.3,190.5,11.5,189.9,11z"/>
	<path class="st1" d="M228.2,2.9V22h-5.1V10l-4.5,12h-4.4l-4.6-12v12h-5.1V2.9h6.2l5.7,13.3L222,2.9H228.2z"/>
	<path class="st1" d="M241.4,7.4c0.9,0.5,1.6,1.2,2,2.2V6.8h5.1V22h-5.1v-2.8c-0.4,0.9-1.1,1.6-2,2.2c-0.9,0.5-2,0.8-3.3,0.8
		c-1.4,0-2.6-0.3-3.7-0.9c-1.1-0.6-1.9-1.5-2.6-2.7c-0.6-1.2-0.9-2.6-0.9-4.1c0-1.6,0.3-3,0.9-4.2c0.6-1.2,1.5-2.1,2.6-2.7
		s2.3-0.9,3.7-0.9C239.4,6.6,240.4,6.9,241.4,7.4z M237.1,11.7c-0.7,0.7-1,1.6-1,2.7c0,1.2,0.3,2.1,1,2.7c0.7,0.7,1.5,1,2.6,1
		s2-0.3,2.6-1c0.7-0.7,1-1.6,1-2.7s-0.3-2-1-2.7s-1.6-1-2.6-1C238.6,10.7,237.7,11,237.1,11.7z"/>
	<path class="st1" d="M264.9,8.2c1.5,1.1,2.4,2.6,2.7,4.5h-5.4c-0.2-0.7-0.5-1.2-1-1.5c-0.5-0.4-1.1-0.5-1.9-0.5
		c-0.9,0-1.6,0.3-2.2,1c-0.6,0.6-0.9,1.6-0.9,2.8s0.3,2.2,0.9,2.8s1.3,1,2.2,1c0.8,0,1.4-0.2,1.9-0.5c0.5-0.4,0.8-0.9,1-1.5h5.4
		c-0.4,1.9-1.3,3.4-2.7,4.5s-3.2,1.6-5.4,1.6c-1.6,0-3.1-0.3-4.3-0.9c-1.3-0.6-2.3-1.5-3-2.7s-1.1-2.6-1.1-4.1c0-1.6,0.4-3,1.1-4.2
		s1.7-2.1,3-2.7s2.7-0.9,4.4-0.9C261.6,6.6,263.4,7.1,264.9,8.2z"/>
	<path class="st1" d="M282.5,7.5c1.3,0.6,2.3,1.5,3.1,2.7c0.7,1.2,1.1,2.6,1.1,4.1s-0.4,3-1.1,4.1c-0.7,1.2-1.8,2.1-3.1,2.7
		c-1.3,0.6-2.8,0.9-4.4,0.9s-3.1-0.3-4.4-0.9s-2.3-1.5-3.1-2.7c-0.7-1.2-1.1-2.6-1.1-4.1s0.4-3,1.1-4.1c0.7-1.2,1.8-2.1,3.1-2.7
		c1.3-0.6,2.8-0.9,4.4-0.9S281.2,6.9,282.5,7.5z M275.6,11.6c-0.7,0.6-1,1.6-1,2.8s0.3,2.1,1,2.8c0.7,0.6,1.5,1,2.5,1s1.8-0.3,2.4-1
		c0.7-0.6,1-1.6,1-2.8s-0.3-2.2-1-2.8c-0.7-0.6-1.5-1-2.4-1C277.1,10.6,276.3,11,275.6,11.6z"/>
	<path class="st1" d="M296.9,7.4c1-0.5,2.1-0.8,3.3-0.8v5h-1.5c-1.4,0-2.4,0.3-3.1,0.8s-1.1,1.4-1.1,2.7V22h-5.1V6.8h5.1v2.9
		C295.1,8.7,295.9,8,296.9,7.4z"/>
	<path class="st1" d="M302.7,0.7c0.6-0.5,1.3-0.7,2.2-0.7s1.6,0.2,2.2,0.7s0.8,1.1,0.8,1.8c0,0.7-0.3,1.3-0.8,1.7
		c-0.6,0.5-1.3,0.7-2.2,0.7s-1.6-0.2-2.2-0.7s-0.8-1-0.8-1.7C301.8,1.8,302.1,1.2,302.7,0.7z M307.4,6.8V22h-5.1V6.8H307.4z"/>
	<path class="st1" d="M322,8c1.3,1,2.1,2.2,2.4,3.8h-4.8c-0.1-0.6-0.5-1.1-0.9-1.5c-0.5-0.4-1.1-0.5-1.8-0.5c-0.6,0-1,0.1-1.3,0.3
		c-0.3,0.2-0.4,0.5-0.4,1s0.3,0.8,0.8,1.1s1.4,0.5,2.6,0.7c1.3,0.3,2.3,0.6,3.1,0.8c0.8,0.3,1.5,0.7,2.1,1.4
		c0.6,0.6,0.9,1.5,0.9,2.6c0,0.9-0.3,1.6-0.8,2.3s-1.3,1.2-2.2,1.6c-1,0.4-2.1,0.6-3.5,0.6c-2.2,0-4-0.5-5.4-1.4s-2.2-2.2-2.5-3.9
		h4.9c0.1,0.7,0.4,1.2,0.9,1.5s1.2,0.5,2,0.5c0.6,0,1-0.1,1.3-0.4c0.3-0.2,0.4-0.6,0.4-1c0-0.5-0.3-0.9-0.8-1.1s-1.4-0.5-2.7-0.7
		c-1.2-0.2-2.2-0.5-3-0.8s-1.5-0.7-2.1-1.3s-0.9-1.4-0.9-2.5c0-1.4,0.6-2.5,1.7-3.3s2.7-1.3,4.8-1.3C319.1,6.6,320.8,7.1,322,8z"/>
</g>
</svg>
